<svg xmlns="http://www.w3.org/2000/svg" xmlns:xlink="http://www.w3.org/1999/xlink" width="278" zoomAndPan="magnify" viewBox="0 0 208.5 104.999996" height="140" preserveAspectRatio="xMidYMid meet" version="1.0"><defs><clipPath id="3aac276309"><path d="M 0 0.125 L 90 0.125 L 90 104.875 L 0 104.875 Z M 0 0.125 " clip-rule="nonzero"/></clipPath><clipPath id="4a318d7544"><path d="M 0 7 L 77 7 L 77 104.875 L 0 104.875 Z M 0 7 " clip-rule="nonzero"/></clipPath><clipPath id="68b4cdf9be"><path d="M 116.167969 0.125 L 208 0.125 L 208 104.875 L 116.167969 104.875 Z M 116.167969 0.125 " clip-rule="nonzero"/></clipPath><clipPath id="afbfec5401"><path d="M 133 58 L 208 58 L 208 98 L 133 98 Z M 133 58 " clip-rule="nonzero"/></clipPath><clipPath id="7f60a05429"><path d="M 133 31 L 208 31 L 208 91 L 133 91 Z M 133 31 " clip-rule="nonzero"/></clipPath><clipPath id="489cb68f1a"><path d="M 133 52 L 208 52 L 208 91 L 133 91 Z M 133 52 " clip-rule="nonzero"/></clipPath><clipPath id="ed6c33a939"><path d="M 62.917969 18 L 85 18 L 85 25 L 62.917969 25 Z M 62.917969 18 " clip-rule="nonzero"/></clipPath><clipPath id="b81003032e"><path d="M 81 0.125 L 136 0.125 L 136 43 L 81 43 Z M 81 0.125 " clip-rule="nonzero"/></clipPath><clipPath id="dbefa80db5"><path d="M 92 12 L 145.417969 12 L 145.417969 104.875 L 92 104.875 Z M 92 12 " clip-rule="nonzero"/></clipPath></defs><g clip-path="url(#3aac276309)"><path fill="#13a6ad" d="M -1.367188 26.835938 L 11.945312 0.664062 C 12.128906 0.304688 12.527344 0.113281 12.921875 0.1875 L 40.457031 5.714844 C 41.046875 5.832031 41.359375 6.492188 41.070312 7.023438 L 28.460938 30.550781 C 28.292969 30.875 27.941406 31.0625 27.578125 31.023438 L -0.660156 28.144531 C -1.285156 28.078125 -1.652344 27.402344 -1.367188 26.835938 Z M 89.546875 67.761719 C 89.144531 63.671875 88.117188 60.667969 86.789062 58.46875 C 85.347656 56.0625 83.550781 54.609375 81.835938 53.738281 C 80.261719 52.9375 78.765625 52.628906 77.683594 52.515625 C 77.484375 52.496094 77.304688 52.484375 77.140625 52.46875 C 76.429688 52.433594 76 52.480469 76 52.480469 C 66.628906 31.714844 50.777344 32.21875 43.605469 33.699219 C 41.296875 34.175781 39.890625 34.75 39.890625 34.75 C 39.890625 34.75 39.890625 34.753906 39.894531 34.765625 C 39.914062 34.882812 40.117188 35.90625 40.640625 37.773438 C 33.617188 37.734375 26.636719 40.058594 21.046875 45.042969 L 20.457031 43.175781 C 20.457031 43.175781 2.457031 49.648438 1.03125 67 C 0.984375 67.472656 0.957031 67.957031 0.945312 68.449219 C 0.941406 68.691406 0.933594 68.933594 0.933594 69.179688 C 0.859375 77.816406 3.71875 87.378906 8.609375 94.691406 C 7.949219 97.351562 7.136719 100.707031 6.300781 104.398438 C 2.902344 119.375 -3.515625 133.503906 -12.59375 145.886719 C -13.710938 147.410156 -14.714844 148.828125 -15.535156 150.046875 C -15.980469 150.710938 -15.90625 151.589844 -15.359375 152.171875 C -10.421875 157.40625 19.652344 180.917969 54.9375 165.199219 C 56.21875 164.628906 57.144531 163.46875 57.433594 162.089844 C 59.144531 153.914062 64.65625 123.863281 60.398438 93.144531 C 60.398438 93.144531 61.421875 89.457031 62.398438 84.011719 C 70.082031 94.824219 77.15625 94.839844 82.167969 90.191406 C 82.167969 90.191406 82.167969 90.1875 82.171875 90.191406 C 87.328125 85.40625 90.3125 75.699219 89.546875 67.761719 Z M 89.546875 67.761719 " fill-opacity="1" fill-rule="nonzero"/></g><path fill="#e8a50f" d="M 89.546875 67.761719 C 90.3125 75.699219 87.328125 85.40625 82.167969 90.195312 C 82.164062 90.191406 82.164062 90.195312 82.164062 90.195312 C 78.574219 88.777344 75.566406 82.695312 74.714844 74.355469 C 74.554688 72.804688 74.46875 71.175781 74.46875 69.484375 C 74.46875 64.042969 75.339844 58.882812 76.757812 54.847656 C 77.039062 54.019531 77.355469 53.238281 77.683594 52.515625 C 79.335938 48.890625 81.492188 46.621094 83.769531 46.621094 C 86.03125 46.621094 88.097656 48.664062 89.679688 52.035156 C 90.101562 52.933594 90.488281 53.929688 90.835938 55.003906 C 89.15625 56.148438 87.859375 56.789062 87.859375 56.789062 C 87.523438 57.339844 87.164062 57.902344 86.789062 58.46875 C 88.117188 60.667969 89.144531 63.671875 89.546875 67.761719 Z M 39.164062 62.769531 C 37.816406 67.175781 37.597656 75.667969 38.828125 85.414062 C 39.554688 91.164062 40.675781 96.476562 41.980469 100.769531 C 51.644531 91.664062 53.230469 74.195312 39.164062 62.769531 Z M 46.550781 60.609375 L 30.519531 60.476562 C 29.175781 60.464844 27.902344 60.253906 26.726562 59.84375 C 26.339844 59.710938 25.957031 59.585938 25.582031 59.472656 C 11.785156 55.21875 4.175781 62.605469 1.03125 67 C 0.984375 67.472656 0.957031 67.957031 0.945312 68.449219 C 0.941406 68.691406 0.933594 68.933594 0.933594 69.179688 C 1.777344 67.742188 3.488281 65.242188 6.226562 63.132812 C 11.605469 58.984375 18.257812 58.199219 26 60.789062 C 26.121094 60.832031 26.238281 60.871094 26.359375 60.910156 C 27.648438 61.355469 29.046875 61.589844 30.511719 61.601562 L 46.542969 61.734375 Z M 6.777344 24.941406 C 6.671875 25.324219 6.359375 25.585938 6.011719 25.648438 C 5.765625 27.65625 5.042969 32.738281 3.511719 37.460938 L 1.183594 36.789062 C 1.183594 36.789062 3.589844 28.355469 5.148438 25.320312 C 4.957031 25.082031 4.886719 24.746094 4.976562 24.425781 C 5.097656 24 5.464844 23.722656 5.867188 23.703125 C 6.53125 20.265625 6.34375 16.71875 5.300781 13.351562 L 5.742188 13.21875 C 6.804688 16.667969 6.996094 20.285156 6.316406 23.804688 C 6.707031 24 6.914062 24.476562 6.777344 24.941406 Z M 6.777344 24.941406 " fill-opacity="1" fill-rule="nonzero"/><path fill="#f9c19c" d="M 39.894531 34.753906 C 40.03125 35.152344 46.855469 54.152344 39.890625 56.503906 C 34.835938 58.207031 26.90625 51.902344 22.835938 48.203125 C 21.40625 46.910156 20.578125 45.09375 20.476562 43.179688 C 20.464844 43.03125 20.460938 42.882812 20.460938 42.734375 C 20.464844 40.402344 20.03125 38.527344 19.554688 37.179688 C 19.554688 37.175781 19.554688 37.175781 19.550781 37.175781 C 19.453125 37.324219 19.355469 37.464844 19.234375 37.59375 C 17.953125 38.972656 15.523438 38.785156 13.808594 37.183594 C 12.097656 35.582031 11.746094 33.167969 13.027344 31.792969 C 13.328125 31.46875 13.695312 31.238281 14.101562 31.082031 C 13.832031 30.707031 13.570312 30.324219 13.339844 29.925781 C 10.984375 25.914062 11.910156 14.960938 21.621094 11.652344 C 27.453125 9.664062 33.84375 13.066406 35.183594 19.082031 C 35.222656 19.273438 35.261719 19.464844 35.300781 19.664062 C 35.300781 19.664062 39.125 22.804688 37.214844 30.234375 C 37.027344 30.964844 36.832031 31.636719 36.632812 32.25 C 38.117188 34.011719 39.894531 34.75 39.894531 34.75 Z M 90.296875 43.394531 L 86.289062 39.339844 L 83.652344 36.667969 C 83.652344 36.667969 79.867188 43.550781 77.207031 52.25 C 77.183594 52.320312 77.160156 52.398438 77.140625 52.46875 C 76.902344 53.261719 76.671875 54.082031 76.457031 54.914062 C 74.742188 61.460938 73.808594 68.992188 74.710938 74.367188 C 74.710938 74.367188 74.710938 74.363281 74.714844 74.355469 C 74.953125 74.078125 82.042969 65.734375 86.789062 58.46875 C 87.164062 57.902344 87.523438 57.339844 87.859375 56.789062 C 87.859375 56.789062 89.15625 56.148438 90.835938 55.003906 C 92.664062 53.757812 94.953125 51.921875 96.507812 49.683594 Z M 90.296875 43.394531 " fill-opacity="1" fill-rule="nonzero"/><path fill="#13a6ad" d="M 18.222656 34.53125 C 18.6875 34.945312 18.398438 35.21875 17.976562 34.804688 C 17.347656 34.207031 16.640625 33.683594 15.839844 33.351562 C 15.464844 33.199219 15.0625 33.085938 14.652344 33.03125 C 14.664062 33.082031 14.652344 33.136719 14.628906 33.195312 C 14.546875 33.375 14.554688 33.632812 14.550781 33.890625 C 14.546875 34.148438 14.550781 34.398438 14.570312 34.652344 C 14.605469 35.15625 14.699219 35.664062 14.917969 36.128906 C 14.9375 36.167969 14.902344 36.191406 14.878906 36.148438 C 14.613281 35.703125 14.453125 35.195312 14.355469 34.679688 C 14.308594 34.421875 14.277344 34.160156 14.253906 33.898438 C 14.242188 33.644531 14.1875 33.378906 14.285156 33.0625 C 14.292969 33.035156 14.308594 33.019531 14.320312 33 C 13.976562 32.980469 13.625 33.007812 13.28125 33.089844 C 13.207031 33.109375 13.199219 33.066406 13.269531 33.046875 C 13.640625 32.933594 14.035156 32.886719 14.425781 32.890625 C 14.480469 32.867188 14.53125 32.871094 14.570312 32.890625 C 15.027344 32.910156 15.480469 33 15.917969 33.148438 C 16.769531 33.441406 17.542969 33.945312 18.222656 34.53125 Z M 22.734375 18.285156 C 22.429688 18.371094 22.199219 18.476562 21.953125 18.582031 C 21.710938 18.695312 21.476562 18.8125 21.25 18.941406 C 20.792969 19.203125 20.363281 19.503906 19.96875 19.839844 C 19.175781 20.503906 18.515625 21.300781 18.019531 22.164062 C 17.976562 22.242188 18.121094 22.339844 18.171875 22.273438 C 19.453125 20.8125 21.332031 19.984375 23.023438 19.730469 C 23.144531 19.722656 23.195312 19.632812 23.253906 19.488281 C 23.308594 19.347656 23.359375 19.160156 23.378906 18.96875 C 23.398438 18.78125 23.371094 18.582031 23.253906 18.445312 C 23.144531 18.304688 22.941406 18.226562 22.734375 18.285156 Z M 32.445312 14.492188 C 30.75 14.289062 28.828125 14.789062 27.4375 16.117188 C 26.960938 16.609375 28.289062 17.496094 28.542969 17.09375 C 29.375 15.898438 30.78125 14.882812 32.445312 14.683594 C 32.515625 14.671875 32.523438 14.503906 32.445312 14.492188 Z M 32.445312 14.492188 " fill-opacity="1" fill-rule="nonzero"/><path fill="#e25a4b" d="M 13.722656 33.410156 C 13.726562 33.410156 13.734375 33.410156 13.738281 33.410156 C 13.726562 33.410156 13.722656 33.410156 13.722656 33.410156 Z M 19.644531 20.355469 C 19.921875 21.160156 19.976562 22.03125 19.734375 22.84375 C 19.503906 23.570312 19.0625 24.195312 18.511719 24.664062 C 18.273438 25.398438 17.714844 26.195312 16.589844 26.976562 C 16.589844 26.976562 17.925781 33.316406 13.738281 33.410156 C 13.839844 33.402344 14.53125 33.261719 14.097656 31.082031 C 13.589844 28.550781 12.535156 17.972656 15.140625 15.601562 C 17.742188 13.230469 21.109375 14.1875 21.109375 14.1875 C 21.109375 14.1875 21.839844 15.671875 21.402344 17.507812 C 21.972656 16.925781 22.257812 15.984375 21.835938 14.457031 C 20.574219 9.9375 23.101562 12.464844 23.941406 13.15625 C 29.714844 10.820312 32.855469 14.269531 32.855469 14.269531 C 36.480469 13.992188 37.4375 15.859375 37.675781 16.609375 C 37.109375 15.308594 33.660156 16.449219 33.660156 16.449219 C 28.632812 17.828125 26.160156 13.617188 26.160156 13.617188 C 28.445312 19.21875 22.480469 20.027344 22.480469 20.027344 C 24.308594 19.222656 24.6875 17.535156 24.601562 16.035156 C 24.433594 16.804688 23.953125 17.632812 22.871094 18.402344 C 21.941406 19.066406 21.148438 19.351562 20.503906 19.425781 C 20.257812 19.730469 19.980469 20.050781 19.644531 20.355469 Z M 18.667969 21.125 C 18.425781 21.292969 18.167969 21.453125 17.890625 21.613281 C 17.890625 21.613281 18.554688 22.390625 18.644531 23.5 C 18.769531 23.226562 18.855469 22.945312 18.894531 22.660156 C 18.960938 22.128906 18.867188 21.601562 18.667969 21.125 Z M 37.671875 16.601562 C 37.671875 16.609375 37.675781 16.617188 37.683594 16.621094 C 37.675781 16.617188 37.671875 16.609375 37.671875 16.601562 Z M 37.746094 16.90625 C 37.734375 16.800781 37.714844 16.707031 37.675781 16.625 C 37.730469 16.796875 37.746094 16.90625 37.746094 16.90625 Z M 39.472656 34.609375 C 39.441406 34.703125 35.992188 43.753906 20.488281 42.722656 L 20.429688 43.625 C 21.289062 43.683594 22.105469 43.710938 22.898438 43.710938 C 37.027344 43.710938 40.289062 35.011719 40.320312 34.917969 Z M 39.472656 34.609375 " fill-opacity="1" fill-rule="nonzero"/><path fill="#13a6ad" d="M 31.4375 13.242188 C 24.125 10.394531 23.4375 16.214844 23.4375 16.214844 C 10.953125 15.238281 14.09375 31.082031 14.09375 31.082031 L 12.140625 27.914062 C 7.964844 21.128906 10.613281 12.125 17.882812 8.867188 C 17.976562 8.828125 18.066406 8.789062 18.160156 8.746094 C 23.074219 6.613281 28.800781 8.582031 31.4375 13.242188 Z M 31.4375 13.242188 " fill-opacity="1" fill-rule="nonzero"/><path fill="#e8a50f" d="M 90.894531 51.769531 L 50.660156 60.53125 C 50.015625 60.667969 49.378906 60.257812 49.238281 59.617188 L 42.792969 29.953125 C 42.652344 29.3125 43.0625 28.671875 43.707031 28.53125 L 83.941406 19.769531 C 84.582031 19.632812 85.222656 20.042969 85.359375 20.683594 L 91.804688 50.347656 C 91.945312 50.988281 91.535156 51.625 90.894531 51.769531 Z M 35.527344 59.335938 C 35.527344 59.335938 22.214844 48.84375 11.730469 47.390625 C 11.730469 47.390625 4.539062 50.914062 4.003906 56.789062 C 4.003906 56.785156 24.894531 53.898438 35.527344 59.335938 Z M 35.527344 59.335938 " fill-opacity="1" fill-rule="nonzero"/><path fill="#f9c19c" d="M 55.835938 56.734375 C 55.835938 56.734375 58.816406 54.789062 60.035156 55.757812 C 61.027344 56.554688 57.847656 59.355469 54.191406 62.03125 C 54.191406 62.03125 51.390625 69.765625 46.160156 70.742188 L 38.4375 81.832031 C 38.4375 81.832031 36.996094 72.222656 38.835938 62.679688 C 38.835938 62.679688 42.894531 59.917969 44.273438 55.449219 C 45.652344 50.980469 47.679688 49.277344 50.4375 47.730469 C 53.199219 46.1875 58.695312 45.132812 57.84375 47.730469 C 57.84375 47.730469 60.640625 47.652344 59.363281 49.417969 C 58.121094 51.136719 57.796875 50.90625 56.15625 52.0625 C 56.734375 51.660156 58.992188 50.183594 60.09375 50.640625 C 61.929688 51.398438 60.871094 52.347656 55.835938 56.734375 Z M 97.171875 46.160156 C 97.171875 46.160156 98.648438 42.367188 96.503906 42.199219 C 96.503906 42.199219 98.148438 37.648438 95.394531 37.769531 C 95.394531 37.769531 95.5625 34.445312 92.867188 34.960938 C 90.171875 35.480469 86.070312 38.578125 85.480469 40.878906 C 84.894531 43.179688 86.898438 42.542969 86.898438 42.542969 C 86.898438 42.542969 85.292969 44.84375 86.210938 45.53125 C 87.128906 46.21875 89.308594 44.957031 89.308594 44.957031 C 89.308594 44.957031 87.414062 46.851562 88.042969 47.828125 C 88.671875 48.804688 91.945312 47.480469 91.945312 47.480469 C 91.945312 47.480469 88.746094 49.316406 89.367188 50.640625 C 89.984375 51.960938 96.5 49.679688 96.5 49.679688 C 96.5 49.679688 99.300781 46.621094 97.171875 46.160156 Z M 97.171875 46.160156 " fill-opacity="1" fill-rule="nonzero"/><g clip-path="url(#4a318d7544)"><path fill="#f9eae4" d="M 31.4375 13.242188 C 29.640625 10.242188 26.359375 8.242188 22.914062 8.082031 C 19.46875 7.890625 16.097656 9.570312 13.804688 12.089844 C 11.460938 14.605469 10.226562 18.078125 10.355469 21.523438 C 10.414062 23.242188 10.804688 24.953125 11.519531 26.535156 L 12.113281 27.691406 C 12.316406 28.078125 12.550781 28.445312 12.765625 28.824219 L 14.085938 31.082031 L 12.667969 28.886719 C 12.433594 28.519531 12.1875 28.160156 11.96875 27.78125 L 11.324219 26.632812 C 10.554688 25.050781 10.113281 23.308594 10.011719 21.542969 C 9.804688 18.011719 11.074219 14.410156 13.472656 11.792969 C 14.675781 10.488281 16.140625 9.429688 17.761719 8.707031 C 19.363281 7.953125 21.171875 7.625 22.9375 7.742188 C 24.703125 7.890625 26.433594 8.449219 27.910156 9.417969 C 28.292969 9.636719 28.621094 9.933594 28.96875 10.199219 L 29.457031 10.648438 L 29.699219 10.875 L 29.917969 11.121094 C 30.535156 11.738281 31.003906 12.492188 31.4375 13.242188 Z M 27.296875 67.542969 C 29.546875 65.375 32.246094 63.617188 35.257812 62.695312 C 36.292969 62.378906 37.097656 62.257812 37.632812 62.214844 C 38.167969 62.175781 38.441406 62.207031 38.441406 62.253906 C 38.449219 62.375 37.386719 62.460938 35.367188 63.050781 C 32.414062 63.929688 29.742188 65.636719 27.503906 67.761719 C 26.382812 68.824219 25.355469 69.992188 24.417969 71.21875 C 23.476562 72.453125 22.617188 73.75 21.871094 75.109375 C 18.871094 80.539062 17.855469 87.035156 19.015625 93.144531 C 19.113281 93.683594 19.074219 93.691406 18.96875 93.152344 C 17.761719 87.042969 18.707031 80.507812 21.683594 75.003906 C 22.421875 73.628906 23.277344 72.3125 24.210938 71.0625 C 25.148438 69.816406 26.171875 68.628906 27.296875 67.542969 Z M 14.433594 74.230469 C 17.605469 68.484375 23.65625 64.425781 30.125 63.761719 C 31.222656 63.679688 31.777344 63.730469 31.792969 63.621094 C 31.816406 63.539062 31.25 63.292969 30.09375 63.390625 C 23.476562 64.160156 17.484375 68.402344 14.390625 74.207031 C 14.253906 74.460938 14.289062 74.484375 14.433594 74.230469 Z M 26.429688 105.691406 L 27.4375 105.84375 C 28.113281 105.902344 28.785156 106.003906 29.464844 106.011719 C 30.816406 106.09375 32.183594 106.039062 33.527344 105.855469 C 36.203125 105.496094 38.882812 104.523438 40.863281 102.636719 C 41.210938 102.308594 41.179688 102.277344 40.832031 102.601562 C 38.847656 104.457031 36.171875 105.394531 33.515625 105.722656 C 32.179688 105.894531 30.824219 105.929688 29.476562 105.835938 C 28.804688 105.820312 28.132812 105.714844 27.464844 105.652344 L 26.46875 105.488281 C 26.132812 105.441406 25.800781 105.378906 25.472656 105.296875 C 20.195312 104.191406 15.289062 101.464844 11.515625 97.644531 C 11.203125 97.308594 10.921875 97.015625 10.675781 96.773438 C 10.441406 96.523438 10.25 96.304688 10.082031 96.144531 C 9.757812 95.816406 9.570312 95.667969 9.535156 95.695312 C 9.5 95.726562 9.609375 95.933594 9.878906 96.3125 C 10.019531 96.5 10.191406 96.734375 10.414062 97.003906 C 10.648438 97.265625 10.925781 97.566406 11.25 97.902344 C 15.101562 101.75 20.09375 104.457031 25.429688 105.507812 C 25.761719 105.589844 26.09375 105.644531 26.429688 105.691406 Z M 64.972656 60.714844 C 64.871094 59.390625 64.683594 58.746094 64.597656 58.757812 C 64.496094 58.769531 64.488281 59.429688 64.605469 60.742188 C 64.921875 64.566406 64.679688 68.421875 64.175781 72.234375 C 63.671875 76.046875 62.90625 79.824219 62.121094 83.59375 C 62.054688 83.925781 62.09375 83.9375 62.167969 83.605469 C 63.003906 79.847656 63.824219 76.082031 64.386719 72.261719 C 64.949219 68.449219 65.25 64.574219 64.972656 60.714844 Z M 46.410156 125.183594 C 46.308594 125.4375 46.1875 125.753906 46.046875 126.136719 C 45.914062 126.515625 45.753906 126.96875 45.550781 127.464844 C 43.363281 133.402344 40.160156 138.953125 36.191406 143.886719 C 32.214844 148.808594 27.472656 153.140625 22.117188 156.53125 C 21.648438 156.835938 21.671875 156.871094 22.144531 156.570312 C 27.53125 153.222656 32.324219 148.925781 36.355469 144.019531 C 40.382812 139.113281 43.65625 133.554688 45.898438 127.597656 C 46.105469 127.09375 46.253906 126.640625 46.371094 126.246094 C 46.492188 125.855469 46.585938 125.53125 46.660156 125.265625 C 46.796875 124.738281 46.84375 124.464844 46.792969 124.453125 C 46.753906 124.4375 46.617188 124.679688 46.410156 125.183594 Z M 55.328125 68.523438 C 56.066406 80.855469 55.0625 93.300781 52.316406 105.359375 C 52.199219 105.890625 52.242188 105.898438 52.363281 105.367188 C 55.203125 93.332031 56.355469 80.871094 55.699219 68.503906 C 55.429688 64.269531 55.039062 64.300781 55.328125 68.523438 Z M 48.226562 96.65625 C 46.460938 103.261719 43.910156 109.675781 40.621094 115.6875 C 40.476562 115.953125 40.515625 115.972656 40.660156 115.710938 C 44.042969 109.746094 46.730469 103.371094 48.582031 96.757812 C 49.199219 94.480469 48.816406 94.386719 48.226562 96.65625 Z M 22.835938 48.203125 C 21.40625 46.910156 20.578125 45.09375 20.476562 43.179688 L 37.863281 51.105469 L 39.890625 34.75 L 39.894531 34.753906 C 40.03125 35.152344 46.855469 54.152344 39.890625 56.503906 C 34.835938 58.207031 26.90625 51.902344 22.835938 48.203125 Z M 58.101562 193.125 C 58.101562 193.125 58.101562 193.125 58.097656 193.125 C 57.957031 193.125 53.117188 193.152344 50.4375 196.832031 C 50.4375 196.832031 41.195312 191.765625 35.253906 193.410156 C 35.019531 194.765625 34.707031 196.058594 34.300781 197.265625 C 31.757812 204.769531 35.152344 210.539062 35.152344 210.539062 C 35.152344 210.539062 41.359375 211.832031 46.28125 211.144531 C 48.550781 210.828125 50.859375 210.867188 53.136719 211.152344 C 59.527344 211.945312 71.265625 212.914062 75.589844 210.101562 C 81.511719 206.257812 66.195312 195.921875 58.101562 193.125 Z M -3.441406 188.527344 C -3.539062 188.425781 -6.863281 184.90625 -11.382812 185.457031 C -11.382812 185.457031 -13.992188 175.238281 -19.246094 172.011719 C -20.394531 172.769531 -21.554688 173.421875 -22.714844 173.949219 C -29.925781 177.210938 -31.820312 183.632812 -31.820312 183.632812 C -31.820312 183.632812 -28.523438 189.054688 -24.660156 192.1875 C -22.878906 193.628906 -21.332031 195.347656 -19.984375 197.207031 C -16.199219 202.425781 -8.894531 211.667969 -3.886719 212.914062 C 2.960938 214.617188 0.046875 196.355469 -3.441406 188.527344 C -3.4375 188.53125 -3.4375 188.53125 -3.441406 188.527344 Z M -3.441406 188.527344 " fill-opacity="1" fill-rule="nonzero"/></g><path fill="#13a6ad" d="M 27.144531 20.390625 C 26.949219 19.640625 26.949219 18.863281 26.996094 18.105469 C 27.082031 17.070312 27.472656 17.125 27.367188 18.136719 C 27.292969 18.871094 27.277344 19.613281 27.433594 20.320312 C 27.59375 21.019531 27.941406 21.703125 28.519531 22.132812 C 28.804688 22.355469 29.148438 22.492188 29.476562 22.695312 C 29.8125 22.886719 30.101562 23.175781 30.265625 23.53125 C 30.605469 24.238281 30.53125 25.035156 30.441406 25.765625 C 30.421875 25.894531 30.382812 25.890625 30.394531 25.761719 C 30.46875 25.027344 30.503906 24.242188 30.15625 23.589844 C 29.992188 23.265625 29.722656 23.015625 29.398438 22.84375 C 29.078125 22.664062 28.71875 22.539062 28.398438 22.308594 C 27.746094 21.859375 27.347656 21.132812 27.144531 20.390625 Z M 36.597656 32.238281 C 36.492188 32.222656 36.363281 32.679688 36.054688 33.554688 C 35.582031 34.828125 34.753906 35.96875 33.671875 36.800781 C 32.597656 37.640625 31.285156 38.183594 29.921875 38.351562 C 28.558594 38.527344 27.164062 38.359375 25.804688 38.089844 C 24.445312 37.820312 23.101562 37.453125 21.789062 37 C 21.558594 36.917969 21.539062 36.960938 21.769531 37.046875 C 23.078125 37.523438 24.417969 37.914062 25.773438 38.214844 C 27.132812 38.511719 28.539062 38.714844 29.941406 38.566406 C 31.34375 38.421875 32.710938 37.890625 33.84375 37.039062 C 34.984375 36.195312 35.875 35.015625 36.386719 33.683594 C 36.742188 32.761719 36.679688 32.25 36.597656 32.238281 Z M 55.875 56.757812 C 55.183594 57.113281 54.488281 57.472656 53.859375 57.949219 C 53.222656 58.429688 52.714844 59.054688 52.265625 59.6875 C 51.953125 60.125 52.285156 60.339844 52.570312 59.894531 C 52.984375 59.246094 53.417969 58.617188 54 58.117188 C 54.570312 57.609375 55.234375 57.199219 55.894531 56.800781 C 55.957031 56.769531 55.9375 56.726562 55.875 56.757812 Z M 57.265625 51.152344 C 54.570312 52.4375 52.160156 54.394531 50.378906 56.835938 C 49.78125 57.6875 50.125 57.890625 50.679688 57.046875 C 52.359375 54.613281 54.632812 52.566406 57.285156 51.191406 C 57.402344 51.132812 57.382812 51.09375 57.265625 51.152344 Z M 52.058594 50.777344 C 53.503906 49.644531 55.132812 48.753906 56.757812 47.878906 C 56.902344 47.804688 56.882812 47.765625 56.734375 47.839844 C 55.085938 48.667969 53.429688 49.503906 51.925781 50.609375 C 50.433594 51.707031 49.09375 53.101562 48.300781 54.824219 C 48.03125 55.417969 48.042969 55.765625 48.128906 55.785156 C 48.226562 55.8125 48.394531 55.542969 48.636719 54.976562 C 49.359375 53.3125 50.617188 51.90625 52.058594 50.777344 Z M 93.171875 37.890625 C 93.226562 37.863281 93.289062 37.863281 93.324219 37.832031 C 93.363281 37.804688 93.367188 37.710938 93.230469 37.640625 C 93.101562 37.570312 92.894531 37.59375 92.714844 37.6875 C 90.699219 38.667969 88.875 40.007812 87.300781 41.570312 C 87.234375 41.640625 87.261719 41.671875 87.332031 41.609375 C 88.96875 40.113281 90.859375 38.914062 92.867188 38.023438 C 93.027344 37.945312 93.117188 37.914062 93.171875 37.890625 Z M 95.128906 41.800781 C 93.199219 42.363281 91.414062 43.359375 89.894531 44.632812 C 89.828125 44.6875 89.855469 44.722656 89.925781 44.667969 C 91.503906 43.472656 93.332031 42.625 95.226562 42.152344 C 95.875 42.003906 95.792969 41.617188 95.128906 41.800781 Z M 95.125 46.277344 C 93.710938 46.5625 92.371094 47.117188 91.160156 47.847656 C 91.105469 47.878906 91.128906 47.917969 91.179688 47.890625 C 92.441406 47.242188 93.808594 46.832031 95.1875 46.640625 C 95.660156 46.585938 95.613281 46.1875 95.125 46.277344 Z M 94.988281 49.792969 C 94.125 50.03125 93.265625 50.300781 92.410156 50.550781 C 92.371094 50.558594 92.382812 50.601562 92.417969 50.59375 C 93.296875 50.441406 94.1875 50.3125 95.070312 50.152344 C 95.371094 50.097656 95.285156 49.710938 94.988281 49.792969 Z M 21.175781 23.125 C 21.488281 22.933594 21.816406 22.78125 22.152344 22.664062 C 22.484375 22.550781 22.851562 22.441406 23.160156 22.460938 C 23.355469 22.476562 23.472656 22.453125 23.53125 22.367188 C 23.585938 22.296875 23.488281 22.101562 23.175781 22.09375 C 22.746094 22.097656 22.398438 22.246094 22.042969 22.390625 C 21.691406 22.539062 21.363281 22.726562 21.058594 22.949219 C 20.449219 23.382812 19.9375 23.957031 19.5625 24.59375 C 19.53125 24.648438 19.566406 24.671875 19.601562 24.621094 C 20.011719 24.003906 20.554688 23.496094 21.175781 23.125 Z M 28.855469 19.855469 C 29.316406 18.910156 30.097656 18.089844 31.09375 17.621094 C 31.136719 17.597656 31.121094 17.558594 31.074219 17.574219 C 30.039062 17.953125 29.105469 18.691406 28.53125 19.679688 C 28.335938 20.027344 28.707031 20.179688 28.855469 19.855469 Z M 23.058594 23.992188 C 23.164062 23.988281 23.261719 23.96875 23.367188 23.960938 L 23.679688 23.988281 C 23.894531 23.988281 24.101562 24.074219 24.324219 24.109375 L 24.597656 24.152344 L 24.628906 23.964844 C 24.699219 23.519531 24.769531 23.070312 24.785156 22.609375 C 24.601562 22.933594 24.445312 23.273438 24.300781 23.609375 C 23.898438 23.433594 23.464844 23.292969 22.992188 23.347656 C 22.855469 23.34375 22.726562 23.390625 22.597656 23.414062 L 22.398438 23.460938 L 22.214844 23.539062 C 21.960938 23.636719 21.746094 23.792969 21.535156 23.945312 C 21.132812 24.28125 20.835938 24.699219 20.601562 25.136719 C 20.378906 25.574219 20.214844 26.042969 20.160156 26.53125 C 20.429688 26.125 20.695312 25.742188 20.988281 25.386719 C 21.273438 25.035156 21.585938 24.707031 21.929688 24.460938 C 22.28125 24.21875 22.660156 24.050781 23.058594 23.992188 Z M 29.433594 20.753906 C 29.257812 21.179688 29.132812 21.621094 29.101562 22.078125 C 29.582031 21.320312 30.050781 20.578125 30.65625 20.054688 C 30.957031 19.796875 31.285156 19.613281 31.640625 19.542969 C 32 19.46875 32.382812 19.546875 32.777344 19.660156 L 33.074219 19.738281 L 33.105469 19.503906 C 33.164062 19.058594 33.214844 18.613281 33.214844 18.15625 C 33.039062 18.476562 32.898438 18.804688 32.765625 19.132812 C 32.398438 18.960938 31.988281 18.835938 31.546875 18.898438 C 31.023438 18.964844 30.558594 19.242188 30.214844 19.582031 C 29.863281 19.917969 29.617188 20.328125 29.433594 20.753906 Z M 29.433594 20.753906 " fill-opacity="1" fill-rule="nonzero"/><path fill="#f9eae4" d="M 31.113281 32.039062 C 28.183594 33.429688 25.886719 31.363281 24.871094 30.15625 C 24.601562 29.835938 24.792969 29.355469 25.207031 29.300781 C 29.316406 28.761719 32.039062 26.714844 33.273438 25.574219 C 33.601562 25.269531 34.128906 25.492188 34.148438 25.941406 C 34.230469 27.613281 33.949219 30.691406 31.113281 32.039062 Z M 31.113281 32.039062 " fill-opacity="1" fill-rule="nonzero"/><g clip-path="url(#68b4cdf9be)"><path fill="#13a6ad" d="M 143.480469 16.480469 L 149.722656 12.328125 L 150.246094 11.980469 L 154.453125 9.183594 L 154.855469 8.914062 L 167.691406 0.375 C 168.003906 0.171875 168.398438 0.152344 168.726562 0.328125 L 192.917969 13.464844 C 193.609375 13.839844 193.609375 14.828125 192.917969 15.207031 L 170.65625 27.316406 C 170.40625 27.453125 170.109375 27.476562 169.84375 27.382812 L 152.078125 21.171875 L 151.355469 20.917969 L 150.984375 20.789062 L 150.246094 20.53125 L 150.136719 20.492188 L 149.722656 20.347656 L 143.707031 18.242188 C 142.929688 17.972656 142.796875 16.9375 143.480469 16.480469 Z M 213.878906 56.621094 C 208.78125 48.835938 201.734375 45.085938 194.835938 43.460938 C 191.140625 42.59375 187.488281 42.335938 184.195312 42.394531 C 181.671875 42.441406 179.363281 42.675781 177.40625 42.964844 C 173.417969 43.554688 169.371094 43.699219 165.359375 43.285156 C 162.757812 43.015625 160.246094 43.03125 157.847656 43.261719 C 154.179688 43.613281 150.773438 44.476562 147.691406 45.601562 C 136.96875 49.511719 130.210938 56.609375 130.199219 56.621094 C 130.199219 56.621094 116.171875 66.015625 116.171875 80.699219 C 116.171875 92.628906 121.921875 97.660156 129.210938 99.058594 C 132.117188 99.613281 135.007812 100.253906 137.839844 101.121094 C 138.460938 101.3125 139.144531 101.464844 139.867188 101.535156 C 140.96875 104.226562 141.699219 105.84375 141.699219 105.84375 L 197.660156 105.84375 C 198.71875 104.492188 199.730469 102.894531 200.695312 101.117188 C 202.6875 101.839844 204.660156 101.609375 206.242188 101.121094 C 209.070312 100.253906 211.960938 99.613281 214.867188 99.058594 C 222.160156 97.660156 227.910156 92.628906 227.910156 80.699219 C 227.90625 66.015625 213.878906 56.621094 213.878906 56.621094 Z M 213.878906 56.621094 " fill-opacity="1" fill-rule="nonzero"/></g><path fill="#f9eae4" d="M 184.195312 42.398438 C 182.890625 50.777344 178.070312 60.777344 174.816406 66.820312 C 173.023438 70.148438 171.703125 72.277344 171.703125 72.277344 C 170.550781 70.792969 169.464844 69.226562 168.449219 67.625 C 161.453125 56.597656 157.71875 43.792969 157.71875 43.792969 C 157.757812 43.613281 157.800781 43.4375 157.847656 43.265625 C 160.246094 43.03125 162.757812 43.015625 165.359375 43.285156 C 169.371094 43.699219 173.417969 43.558594 177.40625 42.96875 C 179.363281 42.675781 181.671875 42.445312 184.195312 42.398438 Z M 184.195312 42.398438 " fill-opacity="1" fill-rule="nonzero"/><g clip-path="url(#afbfec5401)"><path fill="#231c28" d="M 209.824219 77.699219 C 209.824219 88.328125 207.546875 97.367188 204.738281 97.367188 C 201.929688 97.367188 198.757812 88.753906 198.757812 78.121094 C 198.757812 67.488281 201.929688 58.875 204.738281 58.875 C 207.546875 58.875 209.824219 67.070312 209.824219 77.699219 Z M 133.601562 78.148438 C 133.601562 88.777344 135.628906 97.816406 138.683594 97.816406 C 141.492188 97.816406 144.664062 89.199219 144.664062 78.570312 C 144.664062 67.9375 141.492188 59.320312 138.683594 59.320312 C 135.875 59.320312 133.601562 67.519531 133.601562 78.148438 Z M 133.601562 78.148438 " fill-opacity="1" fill-rule="nonzero"/></g><path fill="#fcbf95" d="M 185.382812 29.113281 C 184.839844 31.109375 183.460938 32.554688 182.03125 32.816406 C 181.804688 35.226562 181.335938 37.417969 180.539062 39.269531 C 180.734375 41.445312 181.066406 44.441406 181.535156 46.128906 L 171.796875 52.167969 L 161.066406 46.746094 C 161.066406 46.746094 161.472656 44.050781 161.613281 40.578125 C 160.714844 39.175781 159.972656 37.421875 159.378906 35.257812 C 159.339844 35.269531 159.300781 35.289062 159.257812 35.300781 C 157.488281 35.777344 155.496094 34.136719 154.816406 31.632812 C 154.132812 29.132812 155.015625 26.714844 156.789062 26.234375 C 157.195312 26.125 157.613281 26.132812 158.027344 26.230469 C 158.023438 26.050781 158.023438 25.871094 158.023438 25.695312 C 158.191406 13.546875 169.148438 14.289062 169.148438 14.289062 C 169.148438 14.289062 180.730469 12.039062 181.84375 22.890625 C 181.855469 22.976562 181.863281 23.066406 181.871094 23.15625 C 181.890625 23.363281 181.910156 23.574219 181.929688 23.78125 C 182.417969 23.617188 182.921875 23.582031 183.414062 23.710938 C 185.183594 24.195312 186.066406 26.609375 185.382812 29.113281 Z M 185.382812 29.113281 " fill-opacity="1" fill-rule="nonzero"/><path fill="#231c28" d="M 173.710938 20.449219 C 173.246094 20.632812 172.773438 20.859375 172.230469 21.128906 C 172.347656 20.527344 172.703125 20.007812 173.160156 19.597656 C 173.621094 19.1875 174.214844 18.894531 174.847656 18.789062 C 175.003906 18.753906 175.164062 18.75 175.324219 18.742188 C 175.484375 18.742188 175.644531 18.730469 175.800781 18.757812 C 175.957031 18.78125 176.113281 18.804688 176.265625 18.835938 C 176.417969 18.878906 176.5625 18.929688 176.707031 18.984375 C 176.78125 19.011719 176.851562 19.039062 176.921875 19.070312 C 176.988281 19.105469 177.054688 19.144531 177.117188 19.183594 C 177.25 19.261719 177.375 19.34375 177.5 19.429688 C 177.621094 19.515625 177.726562 19.628906 177.832031 19.734375 C 177.9375 19.84375 178.035156 19.949219 178.125 20.074219 C 177.804688 20.082031 177.53125 20.039062 177.261719 20.019531 C 177.125 20.011719 176.992188 20.007812 176.863281 19.996094 C 176.796875 19.992188 176.734375 19.980469 176.671875 19.976562 C 176.609375 19.980469 176.546875 19.980469 176.484375 19.980469 C 176.359375 19.980469 176.234375 19.972656 176.117188 19.964844 C 175.996094 19.980469 175.875 19.980469 175.757812 19.988281 C 175.640625 19.980469 175.527344 20.003906 175.414062 20.019531 C 175.296875 20.03125 175.183594 20.035156 175.074219 20.066406 C 174.621094 20.140625 174.171875 20.269531 173.710938 20.449219 Z M 162.59375 21.835938 C 162.652344 21.8125 162.710938 21.78125 162.765625 21.757812 C 162.828125 21.742188 162.890625 21.722656 162.945312 21.699219 C 163.0625 21.660156 163.179688 21.617188 163.289062 21.570312 C 163.410156 21.542969 163.523438 21.507812 163.632812 21.476562 C 163.742188 21.433594 163.859375 21.417969 163.972656 21.398438 C 164.085938 21.371094 164.195312 21.335938 164.3125 21.332031 C 164.761719 21.257812 165.226562 21.234375 165.726562 21.261719 C 166.222656 21.285156 166.746094 21.351562 167.347656 21.429688 C 167.039062 20.898438 166.535156 20.519531 165.972656 20.273438 C 165.40625 20.035156 164.75 19.945312 164.117188 20.050781 C 163.957031 20.066406 163.804688 20.113281 163.648438 20.15625 C 163.5 20.203125 163.34375 20.242188 163.203125 20.320312 C 163.0625 20.394531 162.921875 20.460938 162.789062 20.542969 C 162.660156 20.628906 162.539062 20.726562 162.417969 20.824219 C 162.359375 20.871094 162.300781 20.921875 162.246094 20.972656 C 162.191406 21.027344 162.140625 21.082031 162.09375 21.144531 C 161.996094 21.257812 161.902344 21.375 161.8125 21.496094 C 161.726562 21.617188 161.660156 21.757812 161.597656 21.890625 C 161.535156 22.027344 161.472656 22.164062 161.429688 22.308594 C 161.730469 22.210938 161.980469 22.085938 162.230469 21.980469 C 162.351562 21.9375 162.472656 21.890625 162.59375 21.835938 Z M 164.980469 32.34375 C 164.703125 32.816406 164.597656 33.144531 164.597656 33.144531 C 171.3125 30.167969 176.960938 31.855469 176.960938 31.855469 C 176.648438 30.792969 175.875 30.144531 175.101562 29.75 C 174.199219 29.296875 173.175781 29.140625 172.167969 29.246094 L 169.46875 29.519531 C 167.613281 29.703125 165.921875 30.738281 164.980469 32.34375 Z M 181.871094 23.160156 C 181.871094 23.160156 180.828125 24.964844 179.707031 25.679688 C 179.707031 25.679688 180.261719 33.597656 179.707031 35.59375 C 179.007812 38.105469 176.929688 40.554688 174.382812 41.394531 C 173.773438 41.59375 173.105469 41.328125 172.796875 40.769531 L 172.007812 39.339844 L 170.632812 39.515625 L 170.402344 40.585938 C 170.21875 41.429688 169.421875 42 168.558594 41.90625 C 166.53125 41.679688 163.082031 40.648438 161.773438 36.34375 C 159.867188 30.082031 160.222656 27.347656 160.222656 27.347656 C 160.222656 27.347656 159.085938 26.773438 158.023438 25.703125 C 158.011719 26.628906 158.0625 27.632812 158.183594 28.714844 C 159.742188 42.476562 164.699219 46.109375 173.207031 45.054688 C 181.640625 44 182.9375 33.910156 181.871094 23.160156 Z M 171.796875 52.894531 L 168.410156 55.042969 L 169.914062 58.4375 L 168.449219 67.625 C 169.464844 69.226562 170.550781 70.792969 171.703125 72.277344 C 171.703125 72.277344 173.023438 70.148438 174.816406 66.820312 L 173.691406 58.390625 L 175.332031 55.042969 Z M 171.796875 52.894531 " fill-opacity="1" fill-rule="nonzero"/><g clip-path="url(#7f60a05429)"><path fill="#fcbf95" d="M 170.65625 35.195312 L 175.328125 38.863281 C 175.328125 38.863281 172.59375 43.820312 166.722656 39.523438 Z M 209.691406 60.191406 C 209.691406 60.191406 207.351562 57.371094 202.484375 53.199219 C 202.160156 52.925781 201.84375 52.644531 201.535156 52.351562 L 201.53125 52.351562 C 199.039062 50.042969 196.925781 47.34375 195.304688 44.355469 C 194.339844 42.578125 193.460938 40.691406 193.078125 39.164062 C 192.011719 34.929688 189.6875 32.085938 189.15625 34.53125 C 189.15625 34.53125 187.558594 30.5625 186.097656 32.152344 C 186.097656 32.152344 183.640625 30.035156 184.105469 33.742188 C 184.105469 33.742188 181.578125 32.21875 182.773438 38.105469 C 183.972656 43.992188 185.234375 47.828125 186.628906 50.339844 C 188.023438 52.855469 185.964844 52.523438 184.105469 52.722656 C 182.242188 52.921875 179.183594 53.976562 179.785156 55.566406 C 180.382812 57.152344 182.84375 56.492188 185.5 56.625 C 188.15625 56.757812 189.753906 56.957031 191.546875 56.292969 C 191.546875 56.292969 193.175781 57.1875 194.992188 59.53125 C 196.382812 61.320312 197.878906 63.949219 198.859375 67.671875 C 201.117188 76.269531 208.964844 88.835938 208.964844 88.835938 C 208.964844 88.835938 211.417969 71.238281 209.691406 60.191406 Z M 159.207031 52.722656 C 157.34375 52.523438 155.285156 52.855469 156.679688 50.339844 C 158.078125 47.828125 159.339844 43.992188 160.535156 38.105469 C 161.730469 32.21875 159.207031 33.742188 159.207031 33.742188 C 159.671875 30.035156 157.210938 32.152344 157.210938 32.152344 C 155.753906 30.5625 154.15625 34.53125 154.15625 34.53125 C 153.625 32.085938 151.296875 34.929688 150.234375 39.164062 C 149.851562 40.691406 148.972656 42.578125 148.003906 44.355469 C 146.386719 47.347656 144.269531 50.042969 141.777344 52.351562 C 141.464844 52.644531 141.152344 52.925781 140.832031 53.199219 C 135.960938 57.371094 133.617188 60.191406 133.617188 60.191406 C 131.890625 71.238281 134.59375 90.203125 134.59375 90.203125 C 134.59375 90.203125 142.191406 76.269531 144.453125 67.671875 C 145.429688 63.949219 146.929688 61.320312 148.316406 59.53125 C 148.941406 58.730469 149.539062 58.097656 150.058594 57.613281 C 150.910156 56.820312 152.085938 56.5 153.242188 56.667969 C 154.527344 56.851562 155.890625 56.71875 157.8125 56.625 C 160.46875 56.492188 162.929688 57.152344 163.527344 55.566406 C 164.125 53.976562 161.066406 52.921875 159.207031 52.722656 Z M 159.207031 52.722656 " fill-opacity="1" fill-rule="nonzero"/></g><g clip-path="url(#489cb68f1a)"><path fill="#f9eae4" d="M 148.316406 59.53125 C 146.929688 61.320312 145.429688 63.949219 144.453125 67.671875 C 142.191406 76.269531 134.59375 90.203125 134.59375 90.203125 C 134.59375 90.203125 132.085938 77.085938 133.617188 60.191406 C 133.617188 60.191406 135.960938 57.371094 140.832031 53.199219 C 141.152344 52.925781 141.464844 52.644531 141.777344 52.351562 L 141.78125 52.351562 C 142.324219 59.953125 148.316406 59.53125 148.316406 59.53125 Z M 209.691406 60.191406 C 209.691406 60.191406 207.351562 57.371094 202.484375 53.199219 C 202.160156 52.925781 201.84375 52.644531 201.535156 52.351562 L 201.53125 52.351562 C 201.53125 52.351562 202.09375 59.425781 194.992188 59.53125 C 196.382812 61.320312 197.878906 63.949219 198.859375 67.671875 C 201.117188 76.269531 208.964844 88.835938 208.964844 88.835938 C 208.964844 88.835938 211.417969 71.238281 209.691406 60.191406 Z M 209.691406 60.191406 " fill-opacity="1" fill-rule="nonzero"/></g><path fill="#13a6ad" d="M 171.066406 39.753906 C 166.410156 39.582031 165.726562 32.609375 165.726562 32.609375 C 165.886719 32.542969 166.050781 32.480469 166.214844 32.421875 C 169.902344 31.089844 173.617188 31.289062 175.011719 31.433594 C 175.382812 31.46875 175.585938 31.503906 175.585938 31.503906 C 175.585938 31.503906 175.71875 39.929688 171.066406 39.753906 Z M 170.859375 17.027344 C 170.210938 17.460938 169.394531 17.558594 168.664062 17.285156 C 161.425781 14.605469 158.191406 23.464844 158.191406 23.464844 L 158.25 21.195312 C 158.402344 15.195312 163.136719 10.285156 169.15625 9.9375 C 169.21875 9.933594 169.28125 9.929688 169.347656 9.925781 C 169.410156 9.921875 169.476562 9.921875 169.539062 9.917969 C 175.148438 9.683594 180.089844 13.5625 181.207031 19.039062 L 181.53125 20.640625 C 177.113281 14.058594 172.757812 15.761719 170.859375 17.027344 Z M 170.859375 17.027344 " fill-opacity="1" fill-rule="nonzero"/><path fill="#231c28" d="M 175.601562 24.378906 C 176.039062 24.371094 176.476562 24.421875 176.890625 24.550781 C 177.296875 24.679688 177.691406 24.878906 177.96875 25.191406 C 178.015625 25.246094 178.019531 25.242188 177.964844 25.195312 C 177.65625 24.914062 177.242188 24.800781 176.84375 24.765625 C 176.445312 24.734375 176.042969 24.789062 175.660156 24.863281 C 175.273438 24.949219 174.90625 25.066406 174.546875 25.203125 C 174.183594 25.339844 173.832031 25.492188 173.449219 25.648438 C 173.316406 25.703125 173.207031 25.734375 173.136719 25.765625 C 173.066406 25.796875 173.039062 25.820312 173.039062 25.820312 C 173.039062 25.820312 173.066406 25.792969 173.097656 25.726562 C 173.132812 25.65625 173.183594 25.550781 173.273438 25.425781 C 173.542969 25.082031 173.917969 24.820312 174.324219 24.648438 C 174.722656 24.480469 175.164062 24.394531 175.601562 24.378906 Z M 173.207031 24.65625 C 173.324219 24.648438 173.414062 24.503906 173.425781 24.230469 C 173.441406 23.828125 173.507812 23.417969 173.636719 23.035156 C 173.769531 22.648438 173.964844 22.289062 174.261719 22.011719 C 174.550781 21.734375 174.941406 21.574219 175.351562 21.53125 L 175.664062 21.519531 C 175.765625 21.527344 175.871094 21.542969 175.976562 21.550781 L 176.132812 21.570312 L 176.285156 21.609375 L 176.59375 21.6875 C 176.664062 21.707031 176.683594 21.660156 176.609375 21.636719 L 176.304688 21.535156 L 176.148438 21.484375 L 175.992188 21.453125 C 175.882812 21.433594 175.777344 21.410156 175.671875 21.394531 L 175.339844 21.382812 C 174.902344 21.390625 174.449219 21.535156 174.097656 21.824219 C 173.738281 22.109375 173.488281 22.5 173.316406 22.910156 C 173.144531 23.320312 173.042969 23.757812 173.003906 24.203125 C 172.972656 24.511719 173.105469 24.664062 173.207031 24.65625 Z M 181.773438 29.3125 C 181.808594 29.269531 181.828125 29.210938 181.867188 29.191406 C 181.902344 29.164062 181.925781 29.128906 181.953125 28.996094 C 182.09375 28.261719 182.226562 27.535156 182.496094 26.851562 C 182.632812 26.511719 182.804688 26.179688 183.023438 25.878906 C 183.0625 25.957031 183.140625 26.015625 183.25 26.035156 C 183.464844 26.066406 183.683594 26.207031 183.859375 26.394531 C 184.03125 26.578125 184.160156 26.820312 184.253906 27.074219 C 184.4375 27.578125 184.453125 28.160156 184.328125 28.707031 C 184.316406 28.757812 184.363281 28.769531 184.378906 28.722656 C 184.558594 28.183594 184.621094 27.585938 184.488281 27.003906 C 184.421875 26.71875 184.3125 26.429688 184.125 26.179688 C 183.9375 25.933594 183.679688 25.707031 183.335938 25.621094 C 183.304688 25.613281 183.273438 25.609375 183.246094 25.609375 C 183.410156 25.425781 183.59375 25.257812 183.800781 25.117188 C 183.855469 25.082031 183.828125 25.035156 183.773438 25.070312 C 183.109375 25.449219 182.613281 26.074219 182.269531 26.757812 C 181.921875 27.441406 181.71875 28.183594 181.535156 28.910156 C 181.5 29.023438 181.5 29.1875 181.574219 29.28125 C 181.65625 29.378906 181.746094 29.355469 181.773438 29.3125 Z M 155.722656 31.054688 C 155.699219 30.503906 155.777344 29.957031 155.941406 29.441406 C 156.023438 29.183594 156.121094 28.929688 156.253906 28.710938 C 156.386719 28.488281 156.554688 28.296875 156.75 28.183594 C 156.859375 28.125 156.902344 28.03125 156.898438 27.9375 C 157.03125 28.070312 157.15625 28.210938 157.273438 28.359375 C 157.578125 28.75 157.835938 29.179688 158.078125 29.609375 C 158.554688 30.480469 158.929688 31.402344 159.132812 32.355469 C 159.203125 32.679688 159.332031 32.824219 159.445312 32.808594 C 159.550781 32.792969 159.636719 32.601562 159.550781 32.257812 C 159.289062 31.265625 158.839844 30.335938 158.292969 29.488281 C 158.015625 29.0625 157.726562 28.648438 157.390625 28.269531 C 157.054688 27.890625 156.65625 27.550781 156.195312 27.339844 C 156.113281 27.304688 156.09375 27.347656 156.171875 27.386719 C 156.367188 27.492188 156.546875 27.621094 156.710938 27.765625 C 156.65625 27.765625 156.59375 27.785156 156.523438 27.832031 C 156.25 28.023438 156.074219 28.289062 155.953125 28.558594 C 155.832031 28.828125 155.761719 29.105469 155.707031 29.382812 C 155.601562 29.941406 155.59375 30.511719 155.675781 31.0625 C 155.675781 31.109375 155.722656 31.101562 155.722656 31.054688 Z M 163.953125 25.988281 C 164.335938 25.851562 164.738281 25.789062 165.128906 25.78125 C 165.523438 25.773438 165.902344 25.820312 166.28125 25.894531 C 166.660156 25.964844 167.03125 26.074219 167.429688 26.1875 C 167.566406 26.226562 167.679688 26.25 167.753906 26.273438 C 167.824219 26.292969 167.855469 26.316406 167.855469 26.316406 C 167.855469 26.316406 167.828125 26.292969 167.785156 26.226562 C 167.746094 26.164062 167.683594 26.058594 167.578125 25.949219 C 167.265625 25.625 166.847656 25.414062 166.410156 25.308594 C 165.972656 25.203125 165.507812 25.203125 165.070312 25.289062 C 164.1875 25.472656 163.429688 25.980469 162.890625 26.613281 C 162.84375 26.671875 162.835938 26.664062 162.890625 26.617188 C 163.195312 26.328125 163.566406 26.117188 163.953125 25.988281 Z M 163.648438 22.925781 C 163.769531 22.777344 163.980469 22.71875 164.171875 22.675781 C 164.371094 22.636719 164.574219 22.628906 164.773438 22.640625 C 165.175781 22.664062 165.570312 22.785156 165.902344 22.988281 C 166.589844 23.386719 166.996094 24.113281 167.160156 24.871094 C 167.253906 25.390625 167.714844 25.351562 167.574219 24.769531 C 167.453125 24.359375 167.28125 23.949219 167.015625 23.601562 C 166.757812 23.25 166.414062 22.957031 166.023438 22.769531 C 165.632812 22.582031 165.203125 22.488281 164.78125 22.496094 C 164.566406 22.496094 164.355469 22.523438 164.152344 22.582031 C 163.953125 22.644531 163.738281 22.710938 163.605469 22.898438 C 163.570312 22.972656 163.621094 22.980469 163.648438 22.925781 Z M 171.339844 28.304688 C 171.570312 28.257812 171.804688 28.226562 172.003906 28.277344 C 172.101562 28.300781 172.191406 28.339844 172.261719 28.394531 C 172.328125 28.449219 172.363281 28.515625 172.449219 28.625 C 172.597656 28.78125 172.839844 28.386719 172.753906 28.328125 C 172.683594 28.273438 172.570312 28.152344 172.425781 28.09375 C 172.292969 28.039062 172.152344 28.019531 172.019531 28.027344 C 171.75 28.042969 171.53125 28.148438 171.320312 28.25 C 171.304688 28.261719 171.320312 28.308594 171.339844 28.304688 Z M 169.296875 28.941406 C 169.351562 28.78125 169.480469 28.621094 169.65625 28.53125 C 169.828125 28.433594 170.070312 28.457031 170.308594 28.433594 C 170.328125 28.429688 170.328125 28.378906 170.308594 28.378906 C 170.085938 28.347656 169.859375 28.242188 169.585938 28.296875 C 169.320312 28.339844 169.070312 28.5 168.917969 28.75 C 168.816406 28.941406 169.273438 29.035156 169.296875 28.941406 Z M 171.691406 25.878906 C 171.203125 24.5625 171.320312 23.078125 171.910156 21.867188 C 172.121094 21.464844 171.726562 21.226562 171.519531 21.695312 C 170.96875 23.058594 171.042969 24.617188 171.640625 25.898438 C 171.664062 25.957031 171.710938 25.933594 171.691406 25.878906 Z M 189.882812 38.214844 C 190.132812 38.867188 190.445312 39.484375 190.675781 40.117188 C 191.148438 41.382812 191.210938 42.761719 191.292969 44.128906 C 191.355469 45.503906 191.535156 46.890625 191.917969 48.214844 C 192.292969 49.542969 192.828125 50.824219 193.519531 52.019531 C 193.636719 52.230469 193.683594 52.207031 193.566406 51.992188 C 192.902344 50.789062 192.398438 49.507812 192.058594 48.179688 C 191.714844 46.851562 191.566406 45.492188 191.539062 44.121094 C 191.492188 42.753906 191.464844 41.34375 191 40.007812 C 190.773438 39.34375 190.476562 38.722656 190.25 38.085938 C 190.015625 37.445312 189.824219 36.792969 189.675781 36.132812 C 189.476562 35.230469 189.324219 34.777344 189.210938 34.792969 C 189.105469 34.808594 189.039062 35.296875 189.257812 36.230469 C 189.421875 36.902344 189.632812 37.566406 189.882812 38.214844 Z M 186.160156 34.523438 C 186.277344 34.933594 186.398438 35.34375 186.527344 35.75 C 186.777344 36.5625 187.050781 37.371094 187.335938 38.175781 C 187.910156 39.777344 188.546875 41.359375 189.246094 42.910156 C 189.304688 43.046875 189.351562 43.027344 189.296875 42.890625 C 188.652344 41.316406 188.078125 39.714844 187.570312 38.097656 C 187.316406 37.285156 187.082031 36.472656 186.855469 35.65625 C 186.746094 35.246094 186.636719 34.835938 186.535156 34.425781 C 186.433594 34.011719 186.328125 33.609375 186.292969 33.207031 C 186.242188 32.667969 186.230469 32.394531 186.117188 32.359375 C 186.066406 32.347656 185.988281 32.40625 185.929688 32.554688 C 185.871094 32.703125 185.832031 32.945312 185.867188 33.25 C 185.921875 33.703125 186.042969 34.117188 186.160156 34.523438 Z M 187.308594 44.605469 C 185.691406 41.585938 184.730469 38.242188 184.445312 34.863281 C 184.367188 33.707031 183.90625 33.722656 184.023438 34.902344 C 184.40625 38.335938 185.542969 41.664062 187.261719 44.628906 C 187.335938 44.761719 187.378906 44.738281 187.308594 44.605469 Z M 182.984375 52.90625 C 183.957031 52.679688 184.96875 52.835938 185.980469 52.601562 C 186.996094 52.359375 187.832031 51.675781 188.75 51.574219 C 189.054688 51.546875 189.21875 51.476562 189.234375 51.359375 C 189.257812 51.257812 189.078125 51.101562 188.695312 51.152344 C 188.148438 51.238281 187.679688 51.492188 187.242188 51.730469 C 186.800781 51.96875 186.378906 52.21875 185.914062 52.359375 C 184.980469 52.648438 183.9375 52.566406 182.96875 52.847656 C 182.882812 52.875 182.898438 52.921875 182.984375 52.90625 Z M 148.996094 50.761719 C 149.773438 49.714844 150.390625 48.542969 150.816406 47.304688 C 151.03125 46.683594 151.195312 46.046875 151.3125 45.40625 C 151.433594 44.761719 151.523438 44.117188 151.652344 43.484375 C 152.15625 40.9375 153.449219 38.632812 154.105469 36.070312 C 154.324219 35.191406 154.253906 34.71875 154.152344 34.710938 C 154.035156 34.695312 153.886719 35.117188 153.691406 35.96875 C 153.101562 38.472656 151.859375 40.832031 151.410156 43.4375 C 151.296875 44.085938 151.226562 44.730469 151.121094 45.367188 C 151.019531 46.007812 150.875 46.636719 150.679688 47.257812 C 150.289062 48.492188 149.703125 49.667969 148.953125 50.730469 C 148.820312 50.917969 148.859375 50.945312 148.996094 50.761719 Z M 155.871094 32.140625 C 156.023438 32.0625 156.269531 31.9375 156.570312 31.949219 C 156.78125 31.964844 156.945312 32.097656 157.011719 32.3125 C 157.078125 32.53125 157.058594 32.800781 157.011719 33.070312 C 156.921875 33.625 156.78125 34.171875 156.632812 34.722656 L 155.710938 38.027344 C 155.085938 40.226562 154.542969 42.457031 153.589844 44.539062 C 153.507812 44.722656 153.550781 44.742188 153.640625 44.5625 C 154.648438 42.496094 155.261719 40.273438 155.949219 38.097656 L 156.960938 34.816406 C 157.128906 34.269531 157.289062 33.710938 157.394531 33.140625 C 157.445312 32.851562 157.496094 32.535156 157.402344 32.199219 C 157.351562 32.03125 157.257812 31.863281 157.113281 31.742188 C 156.96875 31.617188 156.78125 31.546875 156.601562 31.53125 C 156.105469 31.507812 155.816406 31.75 155.675781 31.910156 C 155.53125 32.085938 155.527344 32.210938 155.570312 32.242188 C 155.617188 32.269531 155.710938 32.222656 155.871094 32.140625 Z M 158.601562 37.667969 L 159.195312 34.835938 C 159.460938 33.542969 159.007812 33.457031 158.773438 34.753906 L 158.265625 37.601562 C 158.09375 38.554688 157.933594 39.5 157.742188 40.445312 C 157.355469 42.324219 156.84375 44.199219 155.882812 45.878906 C 155.800781 46.027344 155.84375 46.054688 155.929688 45.90625 C 156.941406 44.25 157.527344 42.375 157.984375 40.5 C 158.210938 39.554688 158.402344 38.609375 158.601562 37.667969 Z M 155.605469 51.96875 C 155.046875 51.824219 154.460938 51.652344 153.847656 51.671875 C 153.242188 51.683594 152.660156 51.851562 152.117188 52.082031 C 151.578125 52.3125 151.070312 52.605469 150.566406 52.898438 C 150.476562 52.953125 150.5 52.996094 150.59375 52.945312 C 151.109375 52.675781 151.628906 52.414062 152.171875 52.21875 C 152.714844 52.023438 153.28125 51.898438 153.847656 51.921875 C 154.410156 51.9375 154.953125 52.125 155.511719 52.296875 C 156.070312 52.480469 156.65625 52.613281 157.25 52.683594 C 157.65625 52.730469 157.867188 52.621094 157.867188 52.511719 C 157.871094 52.402344 157.679688 52.289062 157.289062 52.261719 C 156.722656 52.21875 156.164062 52.117188 155.605469 51.96875 Z M 204.933594 55.695312 C 204.816406 55.703125 204.746094 56.003906 204.71875 56.589844 C 204.621094 58.296875 203.789062 59.960938 202.496094 61.128906 C 201.195312 62.292969 199.46875 62.984375 197.703125 63.105469 C 197.546875 63.117188 197.550781 63.164062 197.707031 63.15625 C 199.488281 63.097656 201.265625 62.46875 202.660156 61.3125 C 204.042969 60.15625 204.988281 58.449219 205.144531 56.621094 C 205.191406 55.988281 205.035156 55.683594 204.933594 55.695312 Z M 145.375 63.640625 C 145.53125 63.628906 145.527344 63.582031 145.375 63.585938 C 144.5 63.605469 143.644531 63.339844 142.867188 62.957031 C 142.089844 62.574219 141.363281 62.074219 140.730469 61.488281 C 140.09375 60.902344 139.539062 60.234375 139.09375 59.5 C 138.65625 58.765625 138.28125 57.972656 138.171875 57.152344 C 138.101562 56.59375 138.0625 56.304688 137.941406 56.285156 C 137.886719 56.277344 137.824219 56.347656 137.777344 56.503906 C 137.726562 56.65625 137.699219 56.898438 137.753906 57.210938 C 137.902344 58.128906 138.324219 58.9375 138.804688 59.679688 C 139.296875 60.425781 139.894531 61.097656 140.570312 61.671875 C 141.242188 62.25 142 62.726562 142.808594 63.089844 C 143.613281 63.449219 144.492188 63.691406 145.375 63.640625 Z M 171.953125 52.671875 L 171.796875 52.566406 L 171.648438 52.664062 C 169.144531 54.328125 166.691406 56.066406 164.179688 57.71875 C 163.984375 57.847656 163.980469 57.84375 164.179688 57.722656 C 166.691406 56.1875 169.257812 54.738281 171.78125 53.222656 C 172.675781 53.871094 173.621094 54.445312 174.589844 54.964844 C 175.605469 55.515625 176.648438 56.011719 177.703125 56.480469 C 178.117188 56.664062 178.441406 56.785156 178.652344 56.875 C 178.863281 56.960938 178.964844 57.015625 178.964844 57.015625 C 178.964844 57.015625 178.867188 56.957031 178.683594 56.824219 C 178.496094 56.691406 178.222656 56.480469 177.84375 56.230469 C 175.898438 54.964844 173.839844 53.941406 171.953125 52.671875 Z M 196.558594 92.46875 C 195.75 89.992188 195.289062 87.410156 195.171875 84.816406 C 194.9375 79.609375 196 74.414062 197.816406 69.554688 C 198.441406 67.886719 198.710938 67.035156 198.605469 66.988281 C 198.511719 66.945312 198.035156 67.71875 197.414062 69.410156 C 195.625 74.328125 194.617188 79.585938 194.921875 84.828125 C 195.078125 87.445312 195.578125 90.035156 196.421875 92.515625 C 197.261719 94.992188 198.46875 97.355469 200.046875 99.441406 C 200.320312 99.8125 200.359375 99.78125 200.09375 99.40625 C 198.535156 97.308594 197.363281 94.941406 196.558594 92.46875 Z M 147.699219 72.078125 C 147.300781 70.613281 146.820312 69.167969 146.207031 67.777344 C 145.789062 66.824219 145.421875 66.132812 145.132812 65.695312 C 144.851562 65.257812 144.679688 65.054688 144.632812 65.082031 C 144.585938 65.109375 144.65625 65.363281 144.863281 65.835938 C 145.078125 66.3125 145.390625 67.011719 145.816406 67.945312 C 146.429688 69.3125 146.921875 70.734375 147.324219 72.179688 C 147.730469 73.621094 148.046875 75.09375 148.25 76.578125 C 148.457031 78.066406 148.582031 79.566406 148.617188 81.070312 C 148.640625 82.570312 148.582031 84.074219 148.441406 85.574219 C 148.152344 88.5625 147.554688 91.550781 146.367188 94.320312 C 145.1875 97.074219 143.371094 99.617188 140.914062 101.386719 C 140.476562 101.695312 140.503906 101.738281 140.945312 101.433594 C 143.429688 99.679688 145.28125 97.140625 146.503906 94.375 C 147.730469 91.597656 148.363281 88.597656 148.683594 85.597656 C 148.84375 84.089844 148.921875 82.578125 148.914062 81.0625 C 148.894531 79.546875 148.785156 78.035156 148.589844 76.53125 C 148.402344 75.03125 148.09375 73.542969 147.699219 72.078125 Z M 195.824219 65.007812 C 196.453125 64.90625 196.765625 64.863281 196.765625 64.863281 C 196.765625 64.863281 196.453125 64.902344 195.820312 64.964844 C 195.1875 65.027344 194.242188 65.117188 192.980469 65.238281 C 185.625 66.003906 178.277344 66.867188 170.898438 67.246094 C 167.210938 67.4375 163.511719 67.511719 159.816406 67.394531 C 157.640625 67.324219 155.46875 67.191406 153.304688 66.976562 C 153.28125 66.925781 153.25 66.925781 153.21875 66.96875 C 151.734375 66.816406 150.253906 66.632812 148.777344 66.402344 C 148.136719 66.3125 148.132812 66.308594 148.777344 66.40625 C 150.242188 66.648438 151.714844 66.851562 153.1875 67.023438 C 153.082031 67.242188 152.945312 67.894531 152.835938 68.996094 C 152.039062 77.078125 151.28125 85.175781 150.492188 93.257812 C 150.460938 93.613281 150.507812 93.621094 150.546875 93.265625 C 151.445312 85.191406 152.375 77.113281 153.261719 69.035156 C 153.382812 67.941406 153.382812 67.273438 153.324219 67.035156 C 155.480469 67.28125 157.644531 67.457031 159.8125 67.5625 C 160.394531 67.589844 160.980469 67.613281 161.5625 67.632812 C 161.460938 67.757812 161.355469 68.476562 161.335938 69.792969 C 161.210938 78.296875 161.121094 86.804688 161.007812 95.308594 C 161.003906 95.679688 161.050781 95.683594 161.0625 95.308594 C 161.292969 86.808594 161.542969 78.300781 161.761719 69.800781 C 161.796875 68.488281 161.722656 67.765625 161.625 67.636719 C 164.71875 67.742188 167.824219 67.726562 170.917969 67.617188 C 171.097656 67.609375 171.277344 67.597656 171.457031 67.589844 C 171.386719 67.894531 171.34375 68.660156 171.378906 69.882812 C 171.65625 79.378906 171.96875 88.878906 172.253906 98.375 C 172.265625 98.789062 172.316406 98.789062 172.308594 98.371094 C 172.136719 88.875 171.988281 79.367188 171.804688 69.871094 C 171.78125 68.644531 171.703125 67.878906 171.617188 67.578125 C 174.65625 67.453125 177.691406 67.238281 180.722656 66.953125 C 180.660156 67.230469 180.628906 67.78125 180.652344 68.613281 C 180.875 75.886719 181.238281 83.152344 181.671875 90.414062 C 181.691406 90.730469 181.742188 90.730469 181.726562 90.410156 C 181.40625 83.144531 181.207031 75.871094 181.078125 68.601562 C 181.0625 67.753906 181 67.203125 180.925781 66.933594 C 183.453125 66.691406 185.972656 66.402344 188.488281 66.070312 C 188.402344 66.21875 188.367188 66.898438 188.46875 68.113281 C 189.140625 76.109375 189.941406 84.097656 190.808594 92.074219 C 190.847656 92.425781 190.898438 92.421875 190.863281 92.070312 C 190.109375 84.082031 189.472656 76.078125 188.898438 68.078125 C 188.808594 66.851562 188.667969 66.179688 188.5625 66.0625 C 190.046875 65.867188 191.527344 65.664062 193.011719 65.445312 C 194.261719 65.265625 195.199219 65.105469 195.824219 65.007812 Z M 207.386719 49.699219 C 207.320312 49.726562 207.21875 49.765625 207.09375 49.832031 C 206.382812 50.242188 205.824219 50.84375 205.34375 51.492188 C 204.863281 52.140625 204.460938 52.84375 204.066406 53.53125 C 204.035156 53.59375 204.03125 53.589844 204.070312 53.535156 C 204.519531 52.875 205.074219 52.289062 205.625 51.730469 C 206.179688 51.164062 206.742188 50.628906 207.234375 49.992188 C 207.316406 49.878906 207.375 49.789062 207.414062 49.726562 C 207.453125 49.667969 207.476562 49.644531 207.476562 49.644531 C 207.476562 49.644531 207.453125 49.667969 207.386719 49.699219 Z M 134.824219 56.0625 C 134.628906 55.84375 134.421875 55.636719 134.199219 55.453125 C 133.96875 55.269531 133.734375 55.097656 133.449219 54.984375 C 133.351562 54.945312 133.277344 54.921875 133.226562 54.90625 C 133.171875 54.890625 133.15625 54.878906 133.15625 54.878906 C 133.15625 54.878906 133.171875 54.894531 133.199219 54.941406 C 133.226562 54.988281 133.265625 55.058594 133.320312 55.144531 C 133.488281 55.394531 133.695312 55.589844 133.90625 55.789062 C 134.117188 55.980469 134.34375 56.15625 134.574219 56.332031 C 135.035156 56.679688 135.511719 57.015625 135.933594 57.414062 C 135.972656 57.449219 135.96875 57.449219 135.933594 57.414062 C 135.558594 56.972656 135.214844 56.5 134.824219 56.0625 Z M 181.53125 20.640625 L 181.269531 19.496094 C 181.191406 19.113281 181.085938 18.738281 180.984375 18.363281 L 180.90625 18.082031 C 180.878906 17.988281 180.839844 17.898438 180.808594 17.804688 L 180.605469 17.257812 C 180.542969 17.074219 180.449219 16.90625 180.367188 16.726562 L 180.117188 16.203125 C 179.390625 14.828125 178.382812 13.613281 177.179688 12.640625 C 174.785156 10.667969 171.566406 9.785156 168.496094 10.203125 C 166.964844 10.375 165.464844 10.859375 164.121094 11.625 C 162.777344 12.390625 161.613281 13.453125 160.667969 14.671875 C 159.730469 15.898438 159.042969 17.320312 158.660156 18.820312 C 158.238281 20.320312 158.292969 21.902344 158.1875 23.464844 C 158.1875 22.679688 158.1875 21.898438 158.199219 21.121094 C 158.226562 20.726562 158.230469 20.335938 158.277344 19.941406 L 158.367188 19.359375 C 158.398438 19.167969 158.417969 18.96875 158.476562 18.78125 C 158.824219 17.242188 159.496094 15.777344 160.429688 14.496094 C 161.359375 13.210938 162.566406 12.125 163.945312 11.320312 C 165.324219 10.523438 166.867188 10.003906 168.453125 9.816406 C 171.609375 9.414062 174.957031 10.335938 177.375 12.410156 C 178.582031 13.4375 179.585938 14.703125 180.289062 16.113281 L 180.523438 16.660156 C 180.597656 16.839844 180.691406 17.015625 180.742188 17.207031 L 180.925781 17.765625 C 180.957031 17.859375 180.992188 17.953125 181.015625 18.042969 L 181.082031 18.332031 C 181.277344 19.097656 181.390625 19.871094 181.53125 20.640625 Z M 181.53125 20.640625 " fill-opacity="1" fill-rule="nonzero"/><path fill="#f9eae4" d="M 175.011719 31.433594 C 174.800781 31.917969 174.3125 32.582031 173.226562 32.835938 C 171.5625 33.226562 167.589844 34.03125 166.214844 32.421875 C 169.902344 31.089844 173.617188 31.289062 175.011719 31.433594 Z M 175.011719 31.433594 " fill-opacity="1" fill-rule="nonzero"/><path fill="#ffc550" d="M 151.742188 20.1875 C 152.105469 20.503906 152.210938 21.054688 151.960938 21.519531 C 151.753906 21.910156 151.351562 22.125 150.953125 22.113281 C 150.222656 24.242188 148.238281 29.628906 145.457031 34.425781 L 143.058594 33.15625 C 143.058594 33.15625 147.667969 24.507812 150.085938 21.554688 C 149.933594 21.25 149.929688 20.871094 150.109375 20.535156 C 150.367188 20.050781 150.921875 19.832031 151.40625 19.996094 L 151.421875 19.96875 C 153.210938 16.621094 154.238281 12.941406 154.453125 9.183594 L 154.855469 8.914062 C 154.679688 12.828125 153.628906 16.667969 151.765625 20.152344 Z M 151.742188 20.1875 " fill-opacity="1" fill-rule="nonzero"/><g clip-path="url(#ed6c33a939)"><path fill="#e8a50f" d="M 77.679688 20.710938 C 77.632812 21.136719 77.304688 21.511719 76.832031 21.605469 C 76.410156 21.675781 76.035156 21.511719 75.800781 21.207031 C 73.78125 21.910156 68.613281 23.605469 63.449219 24.359375 L 62.976562 21.839844 C 62.976562 21.839844 72.089844 20.171875 75.707031 20.242188 C 75.847656 19.957031 76.128906 19.722656 76.480469 19.652344 C 76.972656 19.558594 77.445312 19.816406 77.632812 20.242188 L 84.582031 18.96875 L 84.675781 19.441406 Z M 77.679688 20.710938 " fill-opacity="1" fill-rule="nonzero"/></g><g clip-path="url(#b81003032e)"><path fill="#13a6ad" d="M 134.367188 28.144531 L 105.085938 41.886719 C 104.472656 42.167969 103.746094 42.027344 103.277344 41.53125 L 82.1875 18.429688 C 81.507812 17.675781 81.695312 16.476562 82.609375 16.007812 L 111.566406 0.476562 C 112.199219 0.125 112.996094 0.289062 113.46875 0.832031 L 134.882812 25.722656 C 135.542969 26.5 135.285156 27.699219 134.367188 28.144531 Z M 134.367188 28.144531 " fill-opacity="1" fill-rule="nonzero"/></g><path fill="#231f20" d="M 126.03125 47.179688 C 125.796875 46.472656 125.492188 45.765625 125.09375 45.132812 C 124.691406 44.496094 124.199219 43.910156 123.683594 43.367188 C 122.625 42.285156 121.40625 41.414062 120.136719 40.640625 C 118.867188 39.886719 117.601562 39.226562 116.613281 38.355469 C 116.308594 38.097656 116.074219 37.933594 115.816406 37.863281 C 115.464844 37.109375 115.394531 36.664062 115.394531 36.664062 C 113.515625 28.191406 97.40625 25.394531 91.089844 32.96875 C 88.949219 35.535156 88.128906 38.519531 87.988281 41.320312 C 87.941406 42.542969 87.753906 43.746094 87.449219 44.921875 C 87.402344 44.96875 87.332031 45.039062 87.261719 45.085938 C 86.976562 45.390625 86.625 45.839844 86.132812 46.449219 C 85.382812 47.34375 84.417969 48.121094 83.410156 48.898438 C 82.421875 49.671875 81.367188 50.402344 80.332031 51.15625 C 79.300781 51.90625 78.265625 52.683594 77.28125 53.53125 C 76.292969 54.378906 75.378906 55.320312 74.578125 56.378906 C 74.179688 56.894531 73.828125 57.460938 73.5 58.023438 C 73.171875 58.589844 72.886719 59.203125 72.675781 59.8125 C 72.230469 61.058594 72.019531 62.402344 72.136719 63.71875 C 72.160156 64.117188 72.230469 64.519531 72.324219 64.917969 C 67.183594 75.550781 68.941406 91.339844 88.339844 93.246094 C 109.382812 95.316406 109.476562 73.246094 109.476562 73.246094 C 128.542969 66.046875 128.097656 49.648438 121.96875 44.78125 C 120.160156 43.34375 118.84375 42.050781 117.90625 40.945312 C 118.46875 41.226562 119.007812 41.484375 119.550781 41.746094 C 120.816406 42.378906 122.039062 43.109375 123.097656 44.027344 C 123.636719 44.472656 124.105469 44.992188 124.527344 45.53125 C 124.949219 46.097656 125.304688 46.683594 125.5625 47.34375 C 126.078125 48.636719 126.265625 50.121094 125.84375 51.484375 C 125.773438 51.71875 125.9375 51.789062 126.03125 51.554688 C 126.546875 50.191406 126.476562 48.613281 126.03125 47.179688 Z M 80.261719 55.414062 C 78.054688 56.988281 75.777344 59.203125 73.734375 62.355469 C 73.359375 62.941406 73.003906 63.554688 72.675781 64.1875 C 72.652344 64.023438 72.652344 63.859375 72.652344 63.71875 C 72.605469 62.472656 72.863281 61.25 73.335938 60.09375 C 73.570312 59.53125 73.851562 58.964844 74.179688 58.449219 C 74.507812 57.929688 74.882812 57.414062 75.285156 56.941406 C 76.878906 55.035156 78.945312 53.578125 81.058594 52.191406 C 82.117188 51.484375 83.199219 50.800781 84.253906 50.050781 C 84.863281 49.625 85.453125 49.179688 86.039062 48.683594 C 84.699219 51.320312 82.726562 53.648438 80.261719 55.414062 Z M 80.261719 55.414062 " fill-opacity="1" fill-rule="nonzero"/><path fill="#e8a50f" d="M 99.566406 100.75 C 97.027344 102.136719 94.1875 102.773438 91.300781 102.609375 L 82.28125 62.519531 C 84.722656 60.871094 87.660156 60.214844 90.546875 60.660156 Z M 99.566406 100.75 " fill-opacity="1" fill-rule="nonzero"/><path fill="#ffd1ae" d="M 115.558594 40.96875 C 114.40625 42.636719 112.738281 43.132812 112.738281 43.132812 L 113.398438 44.027344 L 104.050781 54.894531 C 101.117188 51.882812 98.34375 47.695312 98.34375 47.695312 C 98.34375 47.695312 91.441406 48.355469 90.125 45.484375 C 88.808594 42.589844 87.777344 38.027344 87.917969 36.003906 C 88.058594 33.980469 88.996094 33.722656 89.1875 29.347656 C 89.375 24.96875 92.355469 21.113281 92.355469 21.113281 C 92.355469 21.113281 95.082031 18.476562 104.238281 20.546875 C 113.890625 22.734375 114.96875 34.449219 114.96875 34.449219 C 118.796875 35.15625 116.707031 39.296875 115.558594 40.96875 Z M 90.5 79.714844 C 87.214844 80.445312 85.195312 81.835938 86.390625 83.761719 C 86.390625 83.761719 85.546875 85.058594 86.507812 86.257812 C 86.507812 86.257812 85.828125 88.070312 86.953125 88.75 C 86.953125 88.75 86.71875 90.164062 87.988281 91.082031 C 89.257812 91.996094 94.984375 89.527344 97.78125 88.914062 L 96.535156 80.328125 C 96.511719 80.398438 93.765625 78.988281 90.5 79.714844 Z M 90.5 79.714844 " fill-opacity="1" fill-rule="nonzero"/><path fill="#f9eae4" d="M 104.496094 34.402344 C 104.496094 34.425781 104.496094 34.425781 104.496094 34.402344 C 104.472656 35.558594 104.144531 36.472656 104.144531 36.472656 C 103.441406 35.886719 102.265625 35.535156 101.234375 35.296875 C 100.105469 35.0625 99.121094 34.96875 99.121094 34.96875 C 99.023438 32.050781 100.105469 30.003906 102.125 30.6875 C 102.382812 30.78125 102.640625 30.898438 102.921875 31.0625 C 102.96875 31.085938 102.992188 31.109375 103.039062 31.132812 C 104.214844 31.980469 104.519531 33.296875 104.496094 34.402344 Z M 92.777344 29.0625 C 92.777344 29.0625 92.753906 29.0625 92.777344 29.0625 C 90.6875 27.816406 89.75 30.617188 89.960938 32.78125 C 89.960938 32.78125 90.640625 32.875 91.535156 33.109375 C 92.285156 33.296875 93.15625 33.582031 93.859375 33.957031 C 93.859375 33.933594 94.867188 30.332031 92.777344 29.0625 Z M 92.777344 29.0625 " fill-opacity="1" fill-rule="nonzero"/><path fill="#231f20" d="M 101.609375 20.851562 C 101.609375 20.851562 102.054688 21.015625 102.664062 21.535156 C 102.664062 21.535156 102.664062 21.558594 102.664062 21.558594 C 102.710938 21.863281 102.851562 22.21875 103.113281 22.664062 C 103.488281 23.300781 103.792969 24.003906 104.003906 24.710938 C 104.214844 25.441406 104.285156 26.191406 104.332031 26.992188 C 104.402344 28.570312 104.238281 30.238281 104.589844 31.957031 C 104.777344 32.804688 105.058594 33.628906 105.507812 34.355469 C 105.742188 34.734375 106 35.085938 106.328125 35.367188 C 106.65625 35.675781 107.007812 35.910156 107.410156 36.097656 C 108.207031 36.472656 109.125 36.496094 109.945312 36.285156 C 110.25 36.191406 110.554688 36.074219 110.835938 35.933594 C 112.105469 36.191406 113.515625 35.792969 114.945312 34.425781 C 119.785156 29.816406 109.78125 17.769531 101.609375 20.851562 Z M 109.851562 35.933594 C 109.078125 36.074219 108.277344 35.980469 107.621094 35.628906 C 106.960938 35.273438 106.445312 34.6875 106.09375 34.003906 C 105.742188 33.320312 105.53125 32.570312 105.4375 31.792969 C 105.320312 30.804688 105.390625 29.769531 105.460938 28.734375 C 106.140625 31.863281 107.972656 34.992188 110.34375 35.816406 C 110.203125 35.863281 110.039062 35.910156 109.851562 35.933594 Z M 97.6875 26.96875 C 97.5 26.59375 97.359375 26.214844 97.265625 25.839844 C 97.242188 27.226562 97.59375 28.757812 98.695312 30.332031 C 98.695312 30.332031 91.371094 27.558594 95.949219 20.335938 C 100.527344 13.113281 100.550781 19.230469 99.378906 20.335938 C 99.378906 20.335938 99.191406 20.546875 98.90625 20.945312 C 98.929688 21.136719 98.882812 21.324219 98.765625 21.535156 C 98.390625 22.242188 98.179688 23.085938 98.15625 23.957031 C 98.132812 24.828125 98.226562 25.769531 98.507812 26.59375 C 98.789062 27.441406 99.261719 28.214844 100.011719 28.734375 C 100.738281 29.273438 101.65625 29.582031 102.59375 29.582031 C 102.757812 29.582031 102.78125 29.769531 102.617188 29.769531 C 101.65625 29.886719 100.621094 29.675781 99.753906 29.179688 C 99.308594 28.921875 98.90625 28.617188 98.554688 28.214844 C 98.179688 27.886719 97.898438 27.441406 97.6875 26.96875 Z M 94.210938 31.109375 C 94.328125 32.074219 94.164062 33.039062 93.859375 33.910156 C 93.15625 33.535156 92.261719 33.25 91.535156 33.0625 C 91.417969 32.640625 91.347656 32.214844 91.347656 31.792969 C 91.347656 30.6875 91.839844 29.699219 92.542969 29.15625 C 92.496094 29.132812 92.472656 29.109375 92.425781 29.085938 C 92.050781 28.898438 91.628906 28.851562 91.300781 29.0625 C 90.945312 29.25 90.6875 29.628906 90.5 30.027344 C 90.125 30.851562 89.984375 31.792969 89.960938 32.710938 C 89.773438 31.792969 89.820312 30.804688 90.148438 29.863281 C 90.242188 29.628906 90.335938 29.417969 90.5 29.203125 C 90.640625 28.992188 90.828125 28.804688 91.0625 28.664062 C 91.300781 28.523438 91.582031 28.453125 91.863281 28.453125 C 92.144531 28.453125 92.402344 28.546875 92.636719 28.640625 C 93.109375 28.851562 93.507812 29.203125 93.765625 29.628906 C 94.023438 30.144531 94.164062 30.640625 94.210938 31.109375 Z M 104.121094 37.015625 Z M 104.636719 34.425781 C 104.613281 34.78125 104.566406 35.132812 104.472656 35.488281 C 104.378906 35.839844 104.285156 36.167969 104.144531 36.472656 C 103.441406 35.886719 102.265625 35.535156 101.234375 35.296875 C 100.972656 34.6875 100.832031 34.003906 100.832031 33.390625 C 100.832031 32.332031 101.257812 31.417969 101.914062 30.851562 C 101.679688 30.78125 101.421875 30.734375 101.1875 30.757812 C 101.019531 30.78125 100.855469 30.828125 100.691406 30.898438 C 100.550781 30.96875 100.386719 31.0625 100.269531 31.179688 C 99.753906 31.675781 99.449219 32.40625 99.238281 33.132812 C 99.261719 32.757812 99.332031 32.355469 99.449219 31.980469 C 99.566406 31.605469 99.753906 31.25 100.035156 30.945312 C 100.175781 30.78125 100.339844 30.664062 100.527344 30.546875 C 100.714844 30.453125 100.925781 30.359375 101.140625 30.332031 C 101.5625 30.261719 101.984375 30.359375 102.359375 30.5 C 102.734375 30.640625 103.089844 30.851562 103.417969 31.109375 C 103.746094 31.371094 104.003906 31.699219 104.214844 32.050781 C 104.425781 32.40625 104.542969 32.804688 104.613281 33.203125 C 104.636719 33.628906 104.660156 34.027344 104.636719 34.425781 L 104.636719 34.355469 C 104.636719 34.378906 104.636719 34.449219 104.636719 34.476562 Z M 104.941406 37.558594 C 104.941406 37.675781 104.847656 37.792969 104.707031 37.792969 C 104.566406 37.792969 104.472656 37.699219 104.472656 37.558594 C 104.472656 37.414062 104.566406 37.320312 104.707031 37.320312 C 104.847656 37.320312 104.941406 37.414062 104.941406 37.558594 Z M 104.941406 37.558594 " fill-opacity="1" fill-rule="nonzero"/><g clip-path="url(#dbefa80db5)"><path fill="#13a6ad" d="M 145.359375 105.125 L 102.96875 105.125 C 95.292969 93.152344 91.816406 74.445312 96.980469 63.035156 C 102.148438 51.625 113.421875 44.050781 113.421875 44.050781 C 113.421875 44.050781 115.582031 47.765625 127.582031 59.058594 C 134.320312 65.414062 136.316406 74.585938 136.785156 81.386719 C 137.351562 89.738281 140.144531 97.761719 144.980469 104.585938 C 145.21875 104.914062 145.359375 105.125 145.359375 105.125 Z M 96.347656 21.089844 C 96.910156 21.535156 97.617188 21.792969 98.367188 21.746094 C 111.753906 20.921875 114.945312 34.402344 114.945312 34.402344 L 116.566406 32.027344 C 120.605469 26.121094 118.46875 17.910156 112.011719 14.875 C 111.847656 14.804688 111.707031 14.734375 111.542969 14.664062 C 109.21875 13.652344 107.152344 13.066406 105.320312 12.78125 C 100.949219 12.101562 96.582031 14.125 94.28125 17.910156 L 92.355469 21.039062 C 94.539062 20.21875 95.738281 20.59375 96.347656 21.089844 Z M 96.347656 21.089844 " fill-opacity="1" fill-rule="nonzero"/></g><path fill="#231f20" d="M 95.269531 84.726562 C 93.058594 84.988281 90.921875 85.574219 88.878906 86.398438 C 88.175781 86.679688 88.011719 86.304688 88.738281 86.046875 C 90.828125 85.292969 93.058594 84.84375 95.269531 84.679688 C 95.363281 84.65625 95.363281 84.703125 95.269531 84.726562 Z M 89.679688 88.609375 C 89.019531 88.820312 89.164062 89.199219 89.796875 88.984375 C 91.652344 88.328125 93.578125 87.808594 95.527344 87.503906 C 95.621094 87.480469 95.597656 87.457031 95.527344 87.457031 C 93.554688 87.644531 91.582031 88.023438 89.679688 88.609375 Z M 103.324219 12.902344 C 104.285156 12.878906 105.226562 12.996094 106.164062 13.183594 C 108.042969 13.558594 109.875 14.195312 111.636719 14.996094 C 112.503906 15.394531 113.328125 15.863281 114.078125 16.453125 C 114.828125 17.042969 115.511719 17.722656 116.074219 18.476562 C 117.25 19.980469 117.976562 21.816406 118.304688 23.699219 C 118.609375 25.582031 118.445312 27.558594 117.8125 29.394531 C 117.507812 30.308594 117.085938 31.179688 116.542969 31.980469 L 114.945312 34.425781 C 115.511719 33.628906 116.074219 32.851562 116.636719 32.050781 C 117.203125 31.25 117.671875 30.382812 118.023438 29.464844 C 118.726562 27.628906 118.9375 25.605469 118.65625 23.652344 C 118.515625 22.664062 118.257812 21.722656 117.882812 20.804688 C 117.507812 19.886719 117.011719 19.019531 116.425781 18.242188 C 115.839844 17.441406 115.136719 16.734375 114.359375 16.125 C 113.585938 15.511719 112.714844 14.996094 111.824219 14.59375 C 110.039062 13.792969 108.160156 13.183594 106.234375 12.78125 C 105.273438 12.59375 104.285156 12.476562 103.300781 12.5 C 102.3125 12.523438 101.328125 12.6875 100.386719 12.996094 C 98.507812 13.582031 96.792969 14.710938 95.480469 16.171875 C 95.152344 16.523438 94.84375 16.921875 94.585938 17.324219 L 94.1875 17.933594 L 93.8125 18.570312 C 93.320312 19.417969 92.824219 20.242188 92.355469 21.089844 C 92.871094 20.265625 93.414062 19.441406 93.929688 18.640625 L 94.328125 18.03125 L 94.75 17.441406 C 95.03125 17.066406 95.339844 16.6875 95.667969 16.335938 C 96.980469 14.925781 98.671875 13.890625 100.503906 13.347656 C 101.421875 13.066406 102.359375 12.925781 103.324219 12.902344 Z M 88.761719 83.550781 C 90.640625 82.847656 92.566406 82.304688 94.539062 81.929688 C 94.632812 81.90625 94.609375 81.859375 94.539062 81.882812 C 92.542969 82.140625 90.570312 82.5625 88.644531 83.175781 C 87.988281 83.410156 88.128906 83.785156 88.761719 83.550781 Z M 93.390625 35.085938 C 93.695312 34.898438 94.023438 34.710938 94.304688 34.378906 C 94.492188 34.144531 94.421875 33.957031 94.328125 33.933594 C 94.234375 33.910156 94.117188 33.980469 94 34.144531 C 93.8125 34.402344 93.507812 34.617188 93.203125 34.828125 C 92.894531 35.039062 92.589844 35.320312 92.425781 35.699219 C 92.261719 36.074219 92.285156 36.472656 92.332031 36.828125 C 92.378906 37.203125 92.449219 37.558594 92.589844 37.910156 C 92.613281 37.980469 92.660156 37.957031 92.636719 37.886719 C 92.519531 37.53125 92.472656 37.179688 92.449219 36.804688 C 92.449219 36.449219 92.472656 36.074219 92.636719 35.769531 C 92.800781 35.488281 93.085938 35.273438 93.390625 35.085938 Z M 93.882812 37.980469 C 94.164062 38.027344 94.46875 38.144531 94.703125 38.355469 C 94.703125 38.355469 94.75 38.332031 94.75 38.332031 C 94.585938 38.050781 94.351562 37.769531 94.023438 37.605469 C 93.882812 37.582031 93.789062 37.980469 93.882812 37.980469 Z M 115.441406 36.285156 C 115.769531 36.332031 115.957031 36.308594 116.003906 36.214844 C 116.050781 36.144531 115.910156 35.933594 115.488281 35.886719 C 114.898438 35.839844 114.335938 36.027344 113.84375 36.261719 C 113.351562 36.523438 112.902344 36.828125 112.480469 37.15625 C 111.636719 37.863281 110.953125 38.710938 110.460938 39.699219 C 110.414062 39.792969 110.460938 39.792969 110.507812 39.722656 C 111.023438 38.78125 111.777344 37.980469 112.621094 37.34375 C 113.042969 37.039062 113.515625 36.757812 113.984375 36.546875 C 114.171875 36.449219 114.359375 36.402344 114.570312 36.332031 C 114.570312 36.378906 114.546875 36.425781 114.570312 36.496094 C 114.640625 36.734375 114.617188 37.015625 114.59375 37.296875 C 114.570312 37.582031 114.523438 37.839844 114.453125 38.121094 C 114.3125 38.664062 114.054688 39.179688 113.773438 39.675781 C 113.75 39.722656 113.796875 39.746094 113.820312 39.699219 C 114.171875 39.226562 114.476562 38.734375 114.6875 38.191406 C 114.78125 37.910156 114.875 37.628906 114.921875 37.34375 C 114.96875 37.0625 115.015625 36.757812 114.945312 36.425781 C 114.921875 36.355469 114.898438 36.308594 114.875 36.261719 C 115.066406 36.261719 115.253906 36.261719 115.441406 36.285156 Z M 109.710938 74.515625 C 109.523438 73.648438 109.382812 72.753906 109.265625 71.859375 C 109.148438 70.964844 109.050781 70.070312 109.003906 69.175781 C 108.886719 67.386719 108.910156 65.578125 109.335938 63.859375 C 109.640625 62.683594 109.851562 62.117188 109.734375 62.070312 C 109.664062 62.023438 109.242188 62.542969 108.957031 63.765625 C 108.535156 65.554688 108.558594 67.386719 108.699219 69.175781 C 108.746094 70.070312 108.886719 70.964844 109.003906 71.859375 C 109.148438 72.753906 109.3125 73.648438 109.5 74.515625 C 110.296875 78.046875 111.613281 81.433594 113.398438 84.5625 C 113.5625 84.84375 113.585938 84.820312 113.445312 84.539062 C 111.683594 81.433594 110.4375 78.023438 109.710938 74.515625 Z M 114.734375 70.566406 C 114.335938 68.472656 114.125 66.351562 114.3125 64.257812 C 114.382812 63.554688 114.335938 63.175781 114.242188 63.152344 C 114.148438 63.128906 113.984375 63.484375 113.9375 64.234375 C 113.796875 66.378906 114.054688 68.542969 114.523438 70.613281 C 114.992188 72.707031 115.652344 74.730469 116.332031 76.753906 C 116.378906 76.941406 116.425781 76.917969 116.378906 76.730469 C 115.722656 74.683594 115.136719 72.636719 114.734375 70.566406 Z M 138.804688 103.148438 C 138.570312 102.914062 138.335938 102.703125 138.101562 102.46875 L 137.421875 101.738281 L 137.09375 101.386719 L 136.761719 101.007812 L 136.128906 100.253906 C 135.308594 99.21875 134.507812 98.160156 133.804688 97.054688 C 133.078125 95.949219 132.417969 94.796875 131.785156 93.644531 C 131.175781 92.46875 130.585938 91.292969 130.046875 90.070312 C 128.964844 87.644531 128.027344 85.175781 127.183594 82.65625 C 126.3125 80.164062 125.5625 77.597656 124.597656 75.128906 C 123.636719 72.660156 122.484375 70.234375 120.886719 68.070312 C 119.316406 65.929688 117.296875 64.046875 114.875 62.894531 C 112.457031 61.742188 109.6875 61.34375 107.03125 61.765625 C 106.375 61.882812 105.71875 62.023438 105.085938 62.210938 C 104.449219 62.425781 103.816406 62.660156 103.230469 62.964844 C 102.617188 63.269531 102.054688 63.601562 101.492188 64 C 100.949219 64.402344 100.410156 64.800781 99.941406 65.269531 C 98.601562 66.542969 97.875 67.742188 97.476562 68.566406 C 97.265625 68.988281 97.148438 69.292969 97.078125 69.507812 C 97.003906 69.71875 96.980469 69.835938 97.003906 69.859375 C 97.027344 69.882812 97.101562 69.765625 97.21875 69.578125 C 97.335938 69.386719 97.5 69.082031 97.734375 68.707031 C 98.203125 67.953125 98.953125 66.800781 100.246094 65.554688 C 102.125 63.742188 104.566406 62.496094 107.152344 62.117188 C 109.734375 61.71875 112.433594 62.070312 114.804688 63.199219 C 117.179688 64.332031 119.175781 66.164062 120.722656 68.257812 C 122.296875 70.375 123.472656 72.777344 124.433594 75.222656 C 125.398438 77.695312 126.171875 80.210938 127.066406 82.726562 C 127.933594 85.222656 128.871094 87.714844 129.976562 90.140625 C 130.515625 91.339844 131.128906 92.539062 131.738281 93.714844 C 132.371094 94.867188 133.027344 96.019531 133.78125 97.125 C 134.507812 98.230469 135.308594 99.289062 136.128906 100.324219 L 136.785156 101.078125 L 137.117188 101.457031 L 137.46875 101.808594 L 138.148438 102.539062 C 138.382812 102.773438 138.617188 103.007812 138.851562 103.21875 C 139.441406 103.832031 139.464844 103.808594 138.804688 103.148438 Z M 103.441406 74.117188 C 103.039062 70.964844 103.253906 67.71875 104.121094 64.660156 C 104.191406 64.402344 104.261719 64.164062 104.308594 63.976562 C 104.355469 63.789062 104.402344 63.625 104.425781 63.484375 C 104.472656 63.222656 104.472656 63.058594 104.425781 63.035156 C 104.378906 63.011719 104.285156 63.128906 104.167969 63.390625 C 104.121094 63.507812 104.050781 63.671875 103.957031 63.859375 C 103.886719 64.046875 103.816406 64.28125 103.746094 64.566406 C 102.898438 67.671875 102.757812 70.964844 103.207031 74.140625 C 103.675781 77.316406 104.730469 80.421875 106.421875 83.152344 C 106.5625 83.386719 106.609375 83.363281 106.46875 83.128906 C 104.824219 80.375 103.839844 77.269531 103.441406 74.117188 Z M 99 47.601562 C 98.625 47.625 98.648438 48.050781 99.046875 47.980469 C 100.175781 47.8125 101.28125 47.601562 102.382812 47.34375 C 102.429688 47.320312 102.429688 47.296875 102.382812 47.296875 C 101.234375 47.4375 100.105469 47.53125 99 47.601562 Z M 98.226562 69.976562 C 98.367188 69.246094 98.34375 68.847656 98.25 68.824219 C 98.15625 68.800781 97.96875 69.152344 97.851562 69.90625 C 97.148438 74.28125 97.546875 78.824219 98.929688 83.011719 C 98.976562 83.199219 99.023438 83.175781 98.976562 82.988281 C 97.6875 78.800781 97.453125 74.28125 98.226562 69.976562 Z M 105.953125 29.488281 C 106.046875 29.558594 106.164062 29.441406 106.09375 29.347656 C 105.296875 28.40625 104.472656 27.488281 103.417969 26.734375 C 102.898438 26.359375 102.3125 26.027344 101.679688 25.792969 C 101.375 25.675781 101.019531 25.582031 100.644531 25.535156 C 100.246094 25.488281 99.871094 25.535156 99.542969 25.582031 C 99.074219 25.675781 99 26.121094 99.121094 26.5 C 99.238281 26.875 99.566406 27.203125 99.894531 27.085938 C 100.152344 27.015625 100.363281 26.945312 100.597656 26.945312 C 100.832031 26.921875 101.09375 26.945312 101.351562 26.992188 C 101.890625 27.085938 102.429688 27.277344 102.96875 27.511719 C 104.027344 27.980469 105.035156 28.710938 105.953125 29.488281 Z M 90.523438 25.230469 C 91.183594 25.085938 91.839844 25.039062 92.425781 25.109375 C 93.011719 25.179688 93.554688 25.417969 93.882812 25.722656 C 93.929688 25.769531 94.023438 25.722656 94.164062 25.652344 C 94.28125 25.558594 94.445312 25.417969 94.5625 25.277344 C 94.679688 25.132812 94.796875 24.945312 94.820312 24.78125 C 94.84375 24.617188 94.820312 24.476562 94.679688 24.40625 C 93.882812 24.027344 93.058594 24.027344 92.355469 24.21875 C 91.628906 24.40625 91.039062 24.734375 90.453125 25.039062 C 90.40625 25.085938 90.476562 25.253906 90.523438 25.230469 Z M 90.523438 25.230469 " fill-opacity="1" fill-rule="nonzero"/><path fill="#e8a50f" d="M 97.429688 42.402344 C 96.558594 43.015625 94.585938 44.144531 92.871094 43.4375 C 90.851562 42.613281 90.664062 40.519531 90.664062 40.027344 C 90.664062 39.957031 90.6875 39.910156 90.734375 39.863281 C 90.945312 39.628906 91.605469 38.898438 92.121094 38.828125 C 92.730469 38.757812 93.367188 39.910156 93.367188 39.910156 C 93.367188 39.910156 93.953125 39.039062 94.984375 39.675781 C 95.878906 40.214844 96.511719 41.554688 97.429688 41.957031 C 97.570312 42.027344 97.59375 42.285156 97.429688 42.402344 Z M 97.429688 42.402344 " fill-opacity="1" fill-rule="nonzero"/><path fill="#f9eae4" d="M 91.441406 40.355469 C 91.394531 40.238281 91.535156 40.121094 91.628906 40.214844 C 93.058594 41.273438 94.867188 41.507812 95.785156 41.53125 C 95.925781 41.53125 95.949219 41.722656 95.832031 41.792969 C 95.222656 42.050781 94.164062 42.378906 93.25 42.191406 C 92.285156 41.980469 91.699219 40.96875 91.441406 40.355469 Z M 91.722656 67.175781 C 91.839844 67.175781 91.886719 67.175781 91.886719 67.175781 C 91.886719 67.175781 91.839844 67.175781 91.722656 67.128906 C 91.605469 67.082031 91.441406 67.035156 91.230469 66.964844 C 90.570312 66.800781 89.890625 66.730469 89.1875 66.753906 C 88.480469 66.777344 87.800781 66.917969 87.167969 67.175781 C 86.507812 67.4375 85.921875 67.765625 85.382812 68.1875 C 84.839844 68.613281 84.371094 69.082031 83.949219 69.625 C 83.878906 69.71875 83.878906 69.71875 83.949219 69.625 C 84.394531 69.128906 84.910156 68.707031 85.476562 68.351562 C 86.039062 68.023438 86.648438 67.765625 87.285156 67.601562 C 88.527344 67.246094 89.84375 67.269531 91.183594 67.222656 C 91.441406 67.222656 91.605469 67.199219 91.722656 67.175781 Z M 98.25 96.796875 C 98.132812 96.820312 97.96875 96.867188 97.757812 96.9375 C 96.558594 97.339844 95.386719 97.785156 94.1875 98.136719 C 92.988281 98.492188 91.722656 98.75 90.453125 98.773438 C 90.335938 98.773438 90.335938 98.773438 90.453125 98.773438 C 91.722656 98.84375 93.011719 98.796875 94.304688 98.585938 C 95.574219 98.351562 96.839844 97.925781 97.898438 97.171875 C 98.085938 97.054688 98.203125 96.914062 98.273438 96.84375 C 98.367188 96.773438 98.414062 96.75 98.414062 96.75 C 98.414062 96.75 98.367188 96.75 98.25 96.796875 Z M 98.25 96.796875 " fill-opacity="1" fill-rule="nonzero"/></svg>