<svg xmlns="http://www.w3.org/2000/svg" xmlns:xlink="http://www.w3.org/1999/xlink" width="140" zoomAndPan="magnify" viewBox="0 0 104.88 30.000001" height="40" preserveAspectRatio="xMidYMid meet" version="1.0"><defs><g/><clipPath id="1ce828b98a"><path d="M 4 2.902344 L 28 2.902344 L 28 19 L 4 19 Z M 4 2.902344 " clip-rule="nonzero"/></clipPath><clipPath id="0eb9215e82"><path d="M 1.632812 16 L 29.941406 16 L 29.941406 19.570312 L 1.632812 19.570312 Z M 1.632812 16 " clip-rule="nonzero"/></clipPath><clipPath id="b931b7a158"><path d="M 10.207031 7 L 15 7 L 15 14.867188 L 10.207031 14.867188 Z M 10.207031 7 " clip-rule="nonzero"/></clipPath><clipPath id="ba2f583aa0"><path d="M 11 6.101562 L 16 6.101562 L 16 14.867188 L 11 14.867188 Z M 11 6.101562 " clip-rule="nonzero"/></clipPath><clipPath id="f3ab194d61"><path d="M 16 7 L 21.414062 7 L 21.414062 14.867188 L 16 14.867188 Z M 16 7 " clip-rule="nonzero"/></clipPath><clipPath id="8eabb89931"><path d="M 15 6.101562 L 21 6.101562 L 21 14.867188 L 15 14.867188 Z M 15 6.101562 " clip-rule="nonzero"/></clipPath></defs><g clip-path="url(#1ce828b98a)"><path fill="#000000" d="M 4.195312 3.839844 L 4.195312 17.203125 C 4.195312 17.691406 4.589844 18.082031 5.074219 18.082031 L 27.109375 18.082031 C 27.59375 18.082031 27.988281 17.691406 27.988281 17.203125 L 27.988281 3.839844 C 27.988281 3.351562 27.59375 2.957031 27.109375 2.957031 L 5.074219 2.957031 C 4.589844 2.957031 4.195312 3.351562 4.195312 3.839844 Z M 6.441406 4.519531 L 25.738281 4.519531 C 26.226562 4.519531 26.617188 4.914062 26.617188 5.402344 L 26.617188 15.640625 C 26.617188 16.125 26.226562 16.519531 25.738281 16.519531 L 6.441406 16.519531 C 5.953125 16.519531 5.5625 16.125 5.5625 15.640625 L 5.5625 5.402344 C 5.5625 4.914062 5.957031 4.519531 6.441406 4.519531 Z M 6.441406 4.519531 " fill-opacity="1" fill-rule="nonzero"/></g><g clip-path="url(#0eb9215e82)"><path fill="#00c2cb" d="M 27.074219 19.515625 L 4.5 19.515625 C 2.917969 19.515625 1.632812 18.234375 1.632812 16.648438 L 29.941406 16.648438 C 29.941406 18.234375 28.660156 19.515625 27.074219 19.515625 Z M 27.074219 19.515625 " fill-opacity="1" fill-rule="nonzero"/></g><g clip-path="url(#b931b7a158)"><path fill="#000000" d="M 14.945312 14.867188 L 10.226562 14.867188 L 10.226562 7.144531 L 10.824219 7.144531 L 10.824219 14.359375 L 11.242188 14.277344 C 11.511719 14.226562 11.796875 14.199219 12.085938 14.199219 C 12.925781 14.199219 13.867188 14.417969 14.945312 14.867188 Z M 14.945312 14.867188 " fill-opacity="1" fill-rule="nonzero"/></g><g clip-path="url(#ba2f583aa0)"><path fill="#00c2cb" d="M 15.8125 14.867188 C 14.1875 14.085938 12.621094 13.648438 11.175781 13.929688 L 11.175781 6.207031 C 12.769531 5.898438 14.304688 6.308594 15.8125 7.144531 Z M 15.8125 14.867188 " fill-opacity="1" fill-rule="nonzero"/></g><g clip-path="url(#f3ab194d61)"><path fill="#000000" d="M 16.675781 14.867188 L 21.394531 14.867188 L 21.394531 7.144531 L 20.796875 7.144531 L 20.796875 14.359375 L 20.378906 14.277344 C 20.109375 14.226562 19.824219 14.199219 19.535156 14.199219 C 18.695312 14.199219 17.753906 14.417969 16.675781 14.867188 Z M 16.675781 14.867188 " fill-opacity="1" fill-rule="nonzero"/></g><g clip-path="url(#8eabb89931)"><path fill="#00c2cb" d="M 15.8125 14.867188 C 17.433594 14.085938 19 13.648438 20.445312 13.929688 L 20.445312 6.207031 C 18.851562 5.898438 17.316406 6.308594 15.8125 7.144531 Z M 15.8125 14.867188 " fill-opacity="1" fill-rule="nonzero"/></g><g fill="#000000" fill-opacity="1"><g transform="translate(7.557449, 23.515759)"><g><path d="M 1.359375 -3.046875 C 1.679688 -3.046875 1.960938 -2.984375 2.203125 -2.859375 C 2.453125 -2.734375 2.640625 -2.550781 2.765625 -2.3125 C 2.898438 -2.082031 2.96875 -1.816406 2.96875 -1.515625 C 2.96875 -1.210938 2.898438 -0.945312 2.765625 -0.71875 C 2.640625 -0.488281 2.453125 -0.3125 2.203125 -0.1875 C 1.960938 -0.0625 1.679688 0 1.359375 0 L 0.296875 0 L 0.296875 -3.046875 Z M 1.34375 -0.515625 C 1.664062 -0.515625 1.910156 -0.601562 2.078125 -0.78125 C 2.253906 -0.957031 2.34375 -1.203125 2.34375 -1.515625 C 2.34375 -1.835938 2.253906 -2.085938 2.078125 -2.265625 C 1.910156 -2.441406 1.664062 -2.53125 1.34375 -2.53125 L 0.90625 -2.53125 L 0.90625 -0.515625 Z M 1.34375 -0.515625 "/></g></g></g><g fill="#000000" fill-opacity="1"><g transform="translate(10.679895, 23.515759)"><g><path d="M 0.90625 -3.046875 L 0.90625 0 L 0.296875 0 L 0.296875 -3.046875 Z M 0.90625 -3.046875 "/></g></g></g><g fill="#000000" fill-opacity="1"><g transform="translate(11.890552, 23.515759)"><g><path d="M 2.421875 -2.125 C 2.347656 -2.25 2.25 -2.34375 2.125 -2.40625 C 2.007812 -2.476562 1.867188 -2.515625 1.703125 -2.515625 C 1.523438 -2.515625 1.363281 -2.472656 1.21875 -2.390625 C 1.082031 -2.316406 0.972656 -2.203125 0.890625 -2.046875 C 0.816406 -1.898438 0.78125 -1.726562 0.78125 -1.53125 C 0.78125 -1.320312 0.816406 -1.140625 0.890625 -0.984375 C 0.972656 -0.835938 1.085938 -0.722656 1.234375 -0.640625 C 1.378906 -0.554688 1.546875 -0.515625 1.734375 -0.515625 C 1.960938 -0.515625 2.148438 -0.578125 2.296875 -0.703125 C 2.453125 -0.828125 2.550781 -1 2.59375 -1.21875 L 1.546875 -1.21875 L 1.546875 -1.6875 L 3.203125 -1.6875 L 3.203125 -1.15625 C 3.160156 -0.945312 3.070312 -0.75 2.9375 -0.5625 C 2.800781 -0.382812 2.625 -0.238281 2.40625 -0.125 C 2.195312 -0.0195312 1.960938 0.03125 1.703125 0.03125 C 1.410156 0.03125 1.144531 -0.0351562 0.90625 -0.171875 C 0.675781 -0.304688 0.492188 -0.488281 0.359375 -0.71875 C 0.222656 -0.957031 0.15625 -1.226562 0.15625 -1.53125 C 0.15625 -1.820312 0.222656 -2.085938 0.359375 -2.328125 C 0.492188 -2.566406 0.675781 -2.75 0.90625 -2.875 C 1.144531 -3.007812 1.410156 -3.078125 1.703125 -3.078125 C 2.046875 -3.078125 2.34375 -2.992188 2.59375 -2.828125 C 2.851562 -2.660156 3.03125 -2.425781 3.125 -2.125 Z M 2.421875 -2.125 "/></g></g></g><g fill="#000000" fill-opacity="1"><g transform="translate(15.235096, 23.515759)"><g><path d="M 0.90625 -3.046875 L 0.90625 0 L 0.296875 0 L 0.296875 -3.046875 Z M 0.90625 -3.046875 "/></g></g></g><g fill="#000000" fill-opacity="1"><g transform="translate(16.445753, 23.515759)"><g><path d="M 2.375 -3.046875 L 2.375 -2.546875 L 1.5625 -2.546875 L 1.5625 0 L 0.953125 0 L 0.953125 -2.546875 L 0.140625 -2.546875 L 0.140625 -3.046875 Z M 2.375 -3.046875 "/></g></g></g><g fill="#000000" fill-opacity="1"><g transform="translate(18.958512, 23.515759)"><g><path d="M 2.171875 -0.578125 L 0.953125 -0.578125 L 0.75 0 L 0.109375 0 L 1.203125 -3.046875 L 1.921875 -3.046875 L 3.015625 0 L 2.375 0 Z M 2 -1.0625 L 1.5625 -2.34375 L 1.125 -1.0625 Z M 2 -1.0625 "/></g></g></g><g fill="#000000" fill-opacity="1"><g transform="translate(22.076601, 23.515759)"><g><path d="M 0.90625 -0.484375 L 1.90625 -0.484375 L 1.90625 0 L 0.296875 0 L 0.296875 -3.046875 L 0.90625 -3.046875 Z M 0.90625 -0.484375 "/></g></g></g><g fill="#000000" fill-opacity="1"><g transform="translate(10.027754, 26.04802)"><g><path d="M 1.1875 -0.375 L 0.453125 -0.375 L 0.3125 0 L 0.078125 0 L 0.6875 -1.671875 L 0.9375 -1.671875 L 1.546875 0 L 1.3125 0 Z M 1.125 -0.546875 L 0.8125 -1.40625 L 0.515625 -0.546875 Z M 1.125 -0.546875 "/></g></g></g><g fill="#000000" fill-opacity="1"><g transform="translate(11.658411, 26.04802)"><g><path d="M 0.109375 -0.84375 C 0.109375 -1.007812 0.144531 -1.15625 0.21875 -1.28125 C 0.289062 -1.414062 0.390625 -1.519531 0.515625 -1.59375 C 0.648438 -1.664062 0.796875 -1.703125 0.953125 -1.703125 C 1.128906 -1.703125 1.285156 -1.65625 1.421875 -1.5625 C 1.566406 -1.476562 1.671875 -1.359375 1.734375 -1.203125 L 1.46875 -1.203125 C 1.414062 -1.296875 1.34375 -1.367188 1.25 -1.421875 C 1.164062 -1.484375 1.066406 -1.515625 0.953125 -1.515625 C 0.828125 -1.515625 0.71875 -1.484375 0.625 -1.421875 C 0.53125 -1.367188 0.457031 -1.289062 0.40625 -1.1875 C 0.351562 -1.09375 0.328125 -0.976562 0.328125 -0.84375 C 0.328125 -0.707031 0.351562 -0.585938 0.40625 -0.484375 C 0.457031 -0.390625 0.53125 -0.3125 0.625 -0.25 C 0.71875 -0.195312 0.828125 -0.171875 0.953125 -0.171875 C 1.066406 -0.171875 1.164062 -0.195312 1.25 -0.25 C 1.34375 -0.3125 1.414062 -0.390625 1.46875 -0.484375 L 1.734375 -0.484375 C 1.671875 -0.328125 1.566406 -0.203125 1.421875 -0.109375 C 1.285156 -0.0234375 1.128906 0.015625 0.953125 0.015625 C 0.796875 0.015625 0.648438 -0.0195312 0.515625 -0.09375 C 0.390625 -0.164062 0.289062 -0.265625 0.21875 -0.390625 C 0.144531 -0.523438 0.109375 -0.675781 0.109375 -0.84375 Z M 0.109375 -0.84375 "/></g></g></g><g fill="#000000" fill-opacity="1"><g transform="translate(13.526167, 26.04802)"><g><path d="M 1.1875 -0.375 L 0.453125 -0.375 L 0.3125 0 L 0.078125 0 L 0.6875 -1.671875 L 0.9375 -1.671875 L 1.546875 0 L 1.3125 0 Z M 1.125 -0.546875 L 0.8125 -1.40625 L 0.515625 -0.546875 Z M 1.125 -0.546875 "/></g></g></g><g fill="#000000" fill-opacity="1"><g transform="translate(15.156824, 26.04802)"><g><path d="M 0.71875 -1.6875 C 0.894531 -1.6875 1.050781 -1.648438 1.1875 -1.578125 C 1.320312 -1.515625 1.425781 -1.414062 1.5 -1.28125 C 1.570312 -1.15625 1.609375 -1.007812 1.609375 -0.84375 C 1.609375 -0.664062 1.570312 -0.515625 1.5 -0.390625 C 1.425781 -0.265625 1.320312 -0.164062 1.1875 -0.09375 C 1.050781 -0.03125 0.894531 0 0.71875 0 L 0.1875 0 L 0.1875 -1.6875 Z M 0.71875 -0.1875 C 0.925781 -0.1875 1.085938 -0.242188 1.203125 -0.359375 C 1.328125 -0.472656 1.390625 -0.632812 1.390625 -0.84375 C 1.390625 -1.050781 1.328125 -1.210938 1.203125 -1.328125 C 1.085938 -1.453125 0.925781 -1.515625 0.71875 -1.515625 L 0.40625 -1.515625 L 0.40625 -0.1875 Z M 0.71875 -0.1875 "/></g></g></g><g fill="#000000" fill-opacity="1"><g transform="translate(16.867319, 26.04802)"><g><path d="M 0.40625 -1.515625 L 0.40625 -0.9375 L 1.015625 -0.9375 L 1.015625 -0.765625 L 0.40625 -0.765625 L 0.40625 -0.1875 L 1.09375 -0.1875 L 1.09375 0 L 0.1875 0 L 0.1875 -1.6875 L 1.09375 -1.6875 L 1.09375 -1.515625 Z M 0.40625 -1.515625 "/></g></g></g><g fill="#000000" fill-opacity="1"><g transform="translate(18.108456, 26.04802)"><g><path d="M 1.90625 -1.671875 L 1.90625 0 L 1.671875 0 L 1.671875 -1.25 L 1.125 0 L 0.96875 0 L 0.40625 -1.25 L 0.40625 0 L 0.1875 0 L 0.1875 -1.671875 L 0.421875 -1.671875 L 1.046875 -0.296875 L 1.65625 -1.671875 Z M 1.90625 -1.671875 "/></g></g></g><g fill="#000000" fill-opacity="1"><g transform="translate(20.191536, 26.04802)"><g><path d="M 1.375 -1.6875 L 0.8125 -0.640625 L 0.8125 0 L 0.59375 0 L 0.59375 -0.640625 L 0.046875 -1.6875 L 0.296875 -1.6875 L 0.703125 -0.828125 L 1.125 -1.6875 Z M 1.375 -1.6875 "/></g></g></g><g fill="#000000" fill-opacity="1"><g transform="translate(30.113701, 11.758066)"><g><path d="M 0.453125 -4.578125 C 0.453125 -5.472656 0.65625 -6.273438 1.0625 -6.984375 C 1.46875 -7.691406 2.019531 -8.242188 2.71875 -8.640625 C 3.425781 -9.035156 4.210938 -9.234375 5.078125 -9.234375 C 6.097656 -9.234375 6.988281 -8.972656 7.75 -8.453125 C 8.519531 -7.929688 9.054688 -7.207031 9.359375 -6.28125 L 7.265625 -6.28125 C 7.054688 -6.71875 6.757812 -7.046875 6.375 -7.265625 C 6 -7.484375 5.5625 -7.59375 5.0625 -7.59375 C 4.53125 -7.59375 4.054688 -7.46875 3.640625 -7.21875 C 3.234375 -6.96875 2.914062 -6.613281 2.6875 -6.15625 C 2.457031 -5.707031 2.34375 -5.179688 2.34375 -4.578125 C 2.34375 -3.972656 2.457031 -3.441406 2.6875 -2.984375 C 2.914062 -2.523438 3.234375 -2.171875 3.640625 -1.921875 C 4.054688 -1.671875 4.53125 -1.546875 5.0625 -1.546875 C 5.5625 -1.546875 6 -1.65625 6.375 -1.875 C 6.757812 -2.101562 7.054688 -2.4375 7.265625 -2.875 L 9.359375 -2.875 C 9.054688 -1.9375 8.523438 -1.207031 7.765625 -0.6875 C 7.003906 -0.175781 6.109375 0.078125 5.078125 0.078125 C 4.210938 0.078125 3.425781 -0.117188 2.71875 -0.515625 C 2.019531 -0.910156 1.46875 -1.457031 1.0625 -2.15625 C 0.65625 -2.863281 0.453125 -3.671875 0.453125 -4.578125 Z M 0.453125 -4.578125 "/></g></g></g><g fill="#000000" fill-opacity="1"><g transform="translate(40.147186, 11.758066)"><g><path d="M 5.140625 0.09375 C 4.285156 0.09375 3.5 -0.101562 2.78125 -0.5 C 2.070312 -0.90625 1.503906 -1.460938 1.078125 -2.171875 C 0.660156 -2.878906 0.453125 -3.679688 0.453125 -4.578125 C 0.453125 -5.472656 0.660156 -6.273438 1.078125 -6.984375 C 1.503906 -7.691406 2.070312 -8.242188 2.78125 -8.640625 C 3.5 -9.046875 4.285156 -9.25 5.140625 -9.25 C 5.992188 -9.25 6.773438 -9.046875 7.484375 -8.640625 C 8.203125 -8.242188 8.765625 -7.691406 9.171875 -6.984375 C 9.585938 -6.273438 9.796875 -5.472656 9.796875 -4.578125 C 9.796875 -3.679688 9.585938 -2.878906 9.171875 -2.171875 C 8.765625 -1.460938 8.203125 -0.90625 7.484375 -0.5 C 6.765625 -0.101562 5.984375 0.09375 5.140625 0.09375 Z M 5.140625 -1.546875 C 5.679688 -1.546875 6.160156 -1.664062 6.578125 -1.90625 C 6.992188 -2.15625 7.320312 -2.507812 7.5625 -2.96875 C 7.800781 -3.4375 7.921875 -3.972656 7.921875 -4.578125 C 7.921875 -5.191406 7.800781 -5.726562 7.5625 -6.1875 C 7.320312 -6.644531 6.992188 -6.992188 6.578125 -7.234375 C 6.160156 -7.484375 5.679688 -7.609375 5.140625 -7.609375 C 4.585938 -7.609375 4.097656 -7.484375 3.671875 -7.234375 C 3.253906 -6.992188 2.925781 -6.644531 2.6875 -6.1875 C 2.457031 -5.726562 2.34375 -5.191406 2.34375 -4.578125 C 2.34375 -3.972656 2.457031 -3.4375 2.6875 -2.96875 C 2.925781 -2.507812 3.253906 -2.15625 3.671875 -1.90625 C 4.097656 -1.664062 4.585938 -1.546875 5.140625 -1.546875 Z M 5.140625 -1.546875 "/></g></g></g><g fill="#000000" fill-opacity="1"><g transform="translate(50.402768, 11.758066)"><g><path d="M 10.84375 -9.125 L 10.84375 0 L 9.015625 0 L 9.015625 -5.9375 L 6.578125 0 L 5.1875 0 L 2.734375 -5.9375 L 2.734375 0 L 0.90625 0 L 0.90625 -9.125 L 2.984375 -9.125 L 5.875 -2.34375 L 8.78125 -9.125 Z M 10.84375 -9.125 "/></g></g></g><g fill="#000000" fill-opacity="1"><g transform="translate(62.147696, 11.758066)"><g><path d="M 7.546875 -6.296875 C 7.546875 -5.804688 7.429688 -5.347656 7.203125 -4.921875 C 6.972656 -4.492188 6.609375 -4.148438 6.109375 -3.890625 C 5.617188 -3.628906 5.003906 -3.5 4.265625 -3.5 L 2.734375 -3.5 L 2.734375 0 L 0.90625 0 L 0.90625 -9.125 L 4.265625 -9.125 C 4.960938 -9.125 5.5625 -9 6.0625 -8.75 C 6.5625 -8.507812 6.929688 -8.175781 7.171875 -7.75 C 7.421875 -7.320312 7.546875 -6.835938 7.546875 -6.296875 Z M 4.1875 -4.984375 C 4.6875 -4.984375 5.054688 -5.097656 5.296875 -5.328125 C 5.546875 -5.554688 5.671875 -5.878906 5.671875 -6.296875 C 5.671875 -7.179688 5.175781 -7.625 4.1875 -7.625 L 2.734375 -7.625 L 2.734375 -4.984375 Z M 4.1875 -4.984375 "/></g></g></g><g fill="#000000" fill-opacity="1"><g transform="translate(70.090877, 11.758066)"><g><path d="M 2.703125 -9.125 L 2.703125 -3.46875 C 2.703125 -2.851562 2.863281 -2.378906 3.1875 -2.046875 C 3.507812 -1.722656 3.960938 -1.5625 4.546875 -1.5625 C 5.140625 -1.5625 5.597656 -1.722656 5.921875 -2.046875 C 6.242188 -2.378906 6.40625 -2.851562 6.40625 -3.46875 L 6.40625 -9.125 L 8.25 -9.125 L 8.25 -3.484375 C 8.25 -2.710938 8.078125 -2.054688 7.734375 -1.515625 C 7.398438 -0.984375 6.953125 -0.582031 6.390625 -0.3125 C 5.828125 -0.0390625 5.203125 0.09375 4.515625 0.09375 C 3.835938 0.09375 3.222656 -0.0390625 2.671875 -0.3125 C 2.117188 -0.582031 1.679688 -0.984375 1.359375 -1.515625 C 1.035156 -2.054688 0.875 -2.710938 0.875 -3.484375 L 0.875 -9.125 Z M 2.703125 -9.125 "/></g></g></g><g fill="#000000" fill-opacity="1"><g transform="translate(79.196793, 11.758066)"><g><path d="M 7.109375 -9.125 L 7.109375 -7.640625 L 4.671875 -7.640625 L 4.671875 0 L 2.84375 0 L 2.84375 -7.640625 L 0.421875 -7.640625 L 0.421875 -9.125 Z M 7.109375 -9.125 "/></g></g></g><g fill="#000000" fill-opacity="1"><g transform="translate(86.734976, 11.758066)"><g><path d="M 2.734375 -7.640625 L 2.734375 -5.359375 L 5.796875 -5.359375 L 5.796875 -3.90625 L 2.734375 -3.90625 L 2.734375 -1.484375 L 6.1875 -1.484375 L 6.1875 0 L 0.90625 0 L 0.90625 -9.125 L 6.1875 -9.125 L 6.1875 -7.640625 Z M 2.734375 -7.640625 "/></g></g></g><g fill="#000000" fill-opacity="1"><g transform="translate(93.685257, 11.758066)"><g><path d="M 5.609375 0 L 3.59375 -3.546875 L 2.734375 -3.546875 L 2.734375 0 L 0.90625 0 L 0.90625 -9.125 L 4.328125 -9.125 C 5.023438 -9.125 5.625 -9 6.125 -8.75 C 6.625 -8.5 6.992188 -8.160156 7.234375 -7.734375 C 7.484375 -7.316406 7.609375 -6.847656 7.609375 -6.328125 C 7.609375 -5.722656 7.4375 -5.175781 7.09375 -4.6875 C 6.75 -4.207031 6.226562 -3.878906 5.53125 -3.703125 L 7.71875 0 Z M 2.734375 -4.921875 L 4.265625 -4.921875 C 4.753906 -4.921875 5.117188 -5.039062 5.359375 -5.28125 C 5.609375 -5.519531 5.734375 -5.851562 5.734375 -6.28125 C 5.734375 -6.695312 5.609375 -7.019531 5.359375 -7.25 C 5.117188 -7.488281 4.753906 -7.609375 4.265625 -7.609375 L 2.734375 -7.609375 Z M 2.734375 -4.921875 "/></g></g></g><g fill="#000000" fill-opacity="1"><g transform="translate(102.059265, 11.758066)"><g/></g></g><g fill="#70e3e8" fill-opacity="1"><g transform="translate(47.314362, 21.668986)"><g><path d="M 4.046875 0.09375 C 3.410156 0.09375 2.835938 -0.015625 2.328125 -0.234375 C 1.816406 -0.453125 1.410156 -0.765625 1.109375 -1.171875 C 0.816406 -1.585938 0.671875 -2.070312 0.671875 -2.625 L 2.625 -2.625 C 2.65625 -2.25 2.789062 -1.953125 3.03125 -1.734375 C 3.269531 -1.515625 3.597656 -1.40625 4.015625 -1.40625 C 4.441406 -1.40625 4.773438 -1.507812 5.015625 -1.71875 C 5.253906 -1.925781 5.375 -2.191406 5.375 -2.515625 C 5.375 -2.785156 5.289062 -3.007812 5.125 -3.1875 C 4.96875 -3.363281 4.765625 -3.5 4.515625 -3.59375 C 4.265625 -3.695312 3.921875 -3.8125 3.484375 -3.9375 C 2.890625 -4.101562 2.40625 -4.269531 2.03125 -4.4375 C 1.664062 -4.613281 1.347656 -4.875 1.078125 -5.21875 C 0.816406 -5.5625 0.6875 -6.019531 0.6875 -6.59375 C 0.6875 -7.132812 0.820312 -7.601562 1.09375 -8 C 1.363281 -8.40625 1.742188 -8.710938 2.234375 -8.921875 C 2.722656 -9.140625 3.28125 -9.25 3.90625 -9.25 C 4.84375 -9.25 5.601562 -9.019531 6.1875 -8.5625 C 6.78125 -8.101562 7.109375 -7.46875 7.171875 -6.65625 L 5.15625 -6.65625 C 5.144531 -6.96875 5.015625 -7.222656 4.765625 -7.421875 C 4.515625 -7.628906 4.1875 -7.734375 3.78125 -7.734375 C 3.414062 -7.734375 3.125 -7.640625 2.90625 -7.453125 C 2.695312 -7.273438 2.59375 -7.007812 2.59375 -6.65625 C 2.59375 -6.414062 2.671875 -6.210938 2.828125 -6.046875 C 2.992188 -5.890625 3.195312 -5.757812 3.4375 -5.65625 C 3.675781 -5.5625 4.015625 -5.445312 4.453125 -5.3125 C 5.046875 -5.144531 5.53125 -4.972656 5.90625 -4.796875 C 6.28125 -4.617188 6.601562 -4.351562 6.875 -4 C 7.144531 -3.65625 7.28125 -3.203125 7.28125 -2.640625 C 7.28125 -2.148438 7.148438 -1.695312 6.890625 -1.28125 C 6.640625 -0.863281 6.269531 -0.53125 5.78125 -0.28125 C 5.300781 -0.03125 4.722656 0.09375 4.046875 0.09375 Z M 4.046875 0.09375 "/></g></g></g><g fill="#70e3e8" fill-opacity="1"><g transform="translate(55.270601, 21.668986)"><g><path d="M 0.453125 -4.578125 C 0.453125 -5.472656 0.65625 -6.273438 1.0625 -6.984375 C 1.46875 -7.691406 2.019531 -8.242188 2.71875 -8.640625 C 3.425781 -9.035156 4.210938 -9.234375 5.078125 -9.234375 C 6.097656 -9.234375 6.988281 -8.972656 7.75 -8.453125 C 8.519531 -7.929688 9.054688 -7.207031 9.359375 -6.28125 L 7.265625 -6.28125 C 7.054688 -6.71875 6.757812 -7.046875 6.375 -7.265625 C 6 -7.484375 5.5625 -7.59375 5.0625 -7.59375 C 4.53125 -7.59375 4.054688 -7.46875 3.640625 -7.21875 C 3.234375 -6.96875 2.914062 -6.613281 2.6875 -6.15625 C 2.457031 -5.707031 2.34375 -5.179688 2.34375 -4.578125 C 2.34375 -3.972656 2.457031 -3.441406 2.6875 -2.984375 C 2.914062 -2.523438 3.234375 -2.171875 3.640625 -1.921875 C 4.054688 -1.671875 4.53125 -1.546875 5.0625 -1.546875 C 5.5625 -1.546875 6 -1.65625 6.375 -1.875 C 6.757812 -2.101562 7.054688 -2.4375 7.265625 -2.875 L 9.359375 -2.875 C 9.054688 -1.9375 8.523438 -1.207031 7.765625 -0.6875 C 7.003906 -0.175781 6.109375 0.078125 5.078125 0.078125 C 4.210938 0.078125 3.425781 -0.117188 2.71875 -0.515625 C 2.019531 -0.910156 1.46875 -1.457031 1.0625 -2.15625 C 0.65625 -2.863281 0.453125 -3.671875 0.453125 -4.578125 Z M 0.453125 -4.578125 "/></g></g></g><g fill="#70e3e8" fill-opacity="1"><g transform="translate(65.304086, 21.668986)"><g><path d="M 2.734375 -9.125 L 2.734375 0 L 0.90625 0 L 0.90625 -9.125 Z M 2.734375 -9.125 "/></g></g></g><g fill="#70e3e8" fill-opacity="1"><g transform="translate(68.935998, 21.668986)"><g><path d="M 2.734375 -7.640625 L 2.734375 -5.359375 L 5.796875 -5.359375 L 5.796875 -3.90625 L 2.734375 -3.90625 L 2.734375 -1.484375 L 6.1875 -1.484375 L 6.1875 0 L 0.90625 0 L 0.90625 -9.125 L 6.1875 -9.125 L 6.1875 -7.640625 Z M 2.734375 -7.640625 "/></g></g></g><g fill="#70e3e8" fill-opacity="1"><g transform="translate(75.886279, 21.668986)"><g><path d="M 8.703125 0 L 6.875 0 L 2.734375 -6.25 L 2.734375 0 L 0.90625 0 L 0.90625 -9.125 L 2.734375 -9.125 L 6.875 -2.859375 L 6.875 -9.125 L 8.703125 -9.125 Z M 8.703125 0 "/></g></g></g><g fill="#70e3e8" fill-opacity="1"><g transform="translate(85.48864, 21.668986)"><g><path d="M 0.453125 -4.578125 C 0.453125 -5.472656 0.65625 -6.273438 1.0625 -6.984375 C 1.46875 -7.691406 2.019531 -8.242188 2.71875 -8.640625 C 3.425781 -9.035156 4.210938 -9.234375 5.078125 -9.234375 C 6.097656 -9.234375 6.988281 -8.972656 7.75 -8.453125 C 8.519531 -7.929688 9.054688 -7.207031 9.359375 -6.28125 L 7.265625 -6.28125 C 7.054688 -6.71875 6.757812 -7.046875 6.375 -7.265625 C 6 -7.484375 5.5625 -7.59375 5.0625 -7.59375 C 4.53125 -7.59375 4.054688 -7.46875 3.640625 -7.21875 C 3.234375 -6.96875 2.914062 -6.613281 2.6875 -6.15625 C 2.457031 -5.707031 2.34375 -5.179688 2.34375 -4.578125 C 2.34375 -3.972656 2.457031 -3.441406 2.6875 -2.984375 C 2.914062 -2.523438 3.234375 -2.171875 3.640625 -1.921875 C 4.054688 -1.671875 4.53125 -1.546875 5.0625 -1.546875 C 5.5625 -1.546875 6 -1.65625 6.375 -1.875 C 6.757812 -2.101562 7.054688 -2.4375 7.265625 -2.875 L 9.359375 -2.875 C 9.054688 -1.9375 8.523438 -1.207031 7.765625 -0.6875 C 7.003906 -0.175781 6.109375 0.078125 5.078125 0.078125 C 4.210938 0.078125 3.425781 -0.117188 2.71875 -0.515625 C 2.019531 -0.910156 1.46875 -1.457031 1.0625 -2.15625 C 0.65625 -2.863281 0.453125 -3.671875 0.453125 -4.578125 Z M 0.453125 -4.578125 "/></g></g></g><g fill="#70e3e8" fill-opacity="1"><g transform="translate(95.522125, 21.668986)"><g><path d="M 2.734375 -7.640625 L 2.734375 -5.359375 L 5.796875 -5.359375 L 5.796875 -3.90625 L 2.734375 -3.90625 L 2.734375 -1.484375 L 6.1875 -1.484375 L 6.1875 0 L 0.90625 0 L 0.90625 -9.125 L 6.1875 -9.125 L 6.1875 -7.640625 Z M 2.734375 -7.640625 "/></g></g></g></svg>